<?xml version="1.0" standalone="no"?>
<!DOCTYPE svg PUBLIC "-//W3C//DTD SVG 1.1//EN" "http://www.w3.org/Graphics/SVG/1.1/DTD/svg11.dtd" >
<svg xmlns="http://www.w3.org/2000/svg">
<metadata>
This is a custom SVG font generated by IcoMoon.
<iconset grid="16"></iconset>
</metadata>
<defs>
<font id="icomoon" horiz-adv-x="512" >
<font-face units-per-em="512" ascent="480" descent="-32" />
<missing-glyph horiz-adv-x="512" />
<glyph class="hidden" unicode="&#xf000;" d="M0,480L 512 -32L0 -32 z" horiz-adv-x="0" />
<glyph unicode="&#xe000;" d="M 177.615,192c 7.438,36.521, 39.688,64, 78.396,64
			c 38.709,0, 70.958-27.479, 78.376-64l 32,0 c-7.834,54.125-54.084,96-110.376,96c-56.271,0-102.541-41.875-110.375-96L 177.615,192 z
			 M 256.011,320c 8.833,0, 16,7.167, 16,16l0,32 c0,8.833-7.167,16-16,16c-8.832,0-16-7.167-16-16l0-32 
			C 240.011,327.167, 247.179,320, 256.011,320z M 403.073,323.083c-6.249,6.25-16.374,6.25-22.625,0l-22.625-22.625
			c-6.249-6.25-6.249-16.375,0-22.625c 6.251-6.25, 16.376-6.25, 22.625,0l 22.625,22.625
			C 409.323,306.708, 409.323,316.833, 403.073,323.083z M 154.177,300.458l-22.625,22.625c-6.249,6.25-16.373,6.25-22.625,0
			c-6.249-6.25-6.249-16.375,0-22.625l 22.625-22.625c 6.252-6.25, 16.376-6.25, 22.625,0
			C 160.429,284.083, 160.429,294.208, 154.177,300.458z M 352.011,160l-192,0 c-8.832,0-16-7.167-16-16s 7.168-16, 16-16l 192,0 
			c 8.833,0, 16,7.167, 16,16S 360.844,160, 352.011,160z M 320.011,96l-128,0 c-8.832,0-16-7.167-16-16s 7.168-16, 16-16l 128,0 
			c 8.833,0, 16,7.167, 16,16S 328.844,96, 320.011,96z"  />
<glyph unicode="&#xe001;" d="M 256,336c-61.75,0-112-50.25-112-112c0-61.75, 50.25-112, 112-112
			s 112,50.25, 112,112C 368,285.75, 317.75,336, 256,336z M 256,144c-44.188,0-80,35.812-80,80s 35.812,80, 80,80s 80-35.812, 80-80
			S 300.188,144, 256,144z M 256,368c 8.833,0, 16,7.167, 16,16L 272,416 c0,8.833-7.167,16-16,16s-16-7.167-16-16l0-32 
			C 240,375.167, 247.167,368, 256,368z M 256,80c-8.833,0-16-7.167-16-16l0-32 c0-8.833, 7.167-16, 16-16s 16,7.167, 16,16l0,32 
			C 272,72.833, 264.833,80, 256,80z M 380.438,325.833l 22.625,22.625c 6.25,6.25, 6.25,16.375,0,22.625
			c-6.25,6.25-16.375,6.25-22.625,0l-22.625-22.625c-6.25-6.25-6.25-16.375,0-22.625
			C 364.062,319.583, 374.188,319.583, 380.438,325.833z M 131.562,122.166l-22.625-22.625c-6.25-6.249-6.25-16.374,0-22.624
			s 16.375-6.25, 22.625,0l 22.625,22.624c 6.25,6.271, 6.25,16.376,0,22.625C 147.938,128.417, 137.812,128.438, 131.562,122.166z M 112,224
			c0,8.833-7.167,16-16,16L 64,240 c-8.833,0-16-7.167-16-16s 7.167-16, 16-16l 32,0 C 104.833,208, 112,215.167, 112,224z M 448,240l-32,0 
			c-8.833,0-16-7.167-16-16s 7.167-16, 16-16l 32,0 c 8.833,0, 16,7.167, 16,16S 456.833,240, 448,240z M 131.541,325.833
			c 6.251-6.25, 16.376-6.25, 22.625,0c 6.251,6.25, 6.251,16.375,0,22.625l-22.625,22.625c-6.25,6.25-16.374,6.25-22.625,0
			c-6.25-6.25-6.25-16.375,0-22.625L 131.541,325.833z M 380.459,122.188c-6.271,6.25-16.376,6.25-22.625,0
			c-6.251-6.25-6.271-16.375,0-22.625l 22.625-22.625c 6.249-6.25, 16.374-6.25, 22.624,0s 6.25,16.374,0,22.625L 380.459,122.188z"  />
<glyph unicode="&#xe002;" d="M 349.852,136.85c-49.876-49.916-131.083-49.916-181,0c-49.916,49.917-49.916,131.125,0,181.021
	c 13.209,13.187, 29.312,23.25, 47.832,29.812c 5.834,2.042, 12.293,0.562, 16.625-3.792c 4.376-4.375, 5.855-10.833, 3.793-16.625
	c-12.542-35.375-4-73.666, 22.249-99.917c 26.209-26.228, 64.501-34.75, 99.917-22.25c 5.792,2.062, 12.271,0.583, 16.625-3.792
	c 4.376-4.333, 5.834-10.812, 3.771-16.625C 373.143,166.162, 363.060,150.059, 349.852,136.85z M 191.477,295.246
	c-37.438-37.438-37.438-98.354,0-135.771c 40-40.021, 108.125-36.417, 143,8.167c-35.959-2.25-71.375,10.729-97.75,37.084
	c-26.375,26.354-39.333,61.771-37.084,97.729C 196.769,300.204, 194.039,297.808, 191.477,295.246z"  />
<glyph unicode="&#xe003;" d="M 431,288c-26.5,0-48-21.5-48-48c0-5.646, 1.167-10.958, 2.938-16L 79,224 c-8.833,0-16-7.167-16-16s 7.167-16, 16-16
			l 352,0 c 26.5,0, 48,21.5, 48,48S 457.5,288, 431,288z M 79,256l 192,0 c 26.5,0, 48,21.5, 48,48s-21.5,48-48,48s-48-21.5-48-48
			c0-5.646, 1.167-10.958, 2.938-16L 79,288 c-8.833,0-16-7.167-16-16S 70.167,256, 79,256z M 335,160c-0.938,0-1.834-0.208-2.791-0.291
			c-0.625,0.041-1.146,0.291-1.771,0.291L 83.584,160 C 72.209,160, 63,152.833, 63,144s 9.209-16, 20.584-16l 206.354,0 
			c-1.771-5.042-2.938-10.376-2.938-16c0-26.5, 21.5-48, 48-48s 48,21.5, 48,48S 361.5,160, 335,160z"  />
<glyph unicode="&#xe004;" d="M 495,257l-81.625,0 C 405.312,328.792, 344.938,385, 271,385c-49.812,0-93.75-25.458-119.625-64L 47,321 
	c-8.833,0-16-7.167-16-16s 7.167-16, 16-16l 88.833,0 c-3.624-10.208-5.979-20.896-7.208-32L 79,257 c-8.833,0-16-7.167-16-16s 7.167-16, 16-16
	l 49.625,0 c 1.229-11.084, 3.584-21.812, 7.208-32L 49.916,193 C 39.459,193, 31,185.833, 31,177s 8.459-16, 18.916-16l 101.459,0 
	c 25.875-38.562, 69.812-64, 119.625-64c 49.812,0, 93.75,25.438, 119.624,64l 37.46,0 c 10.457,0, 18.916,7.167, 18.916,16s-8.459,16-18.916,16
	l-21.917,0 c 3.624,10.188, 5.958,20.916, 7.208,32L 495,225 c 8.833,0, 16,7.167, 16,16S 503.833,257, 495,257z M 170.229,289L 271,289 
	c 8.833,0, 16,7.167, 16,16s-7.167,16-16,16l-78.146,0 c 20.209,19.729, 47.729,32, 78.146,32c 56.291,0, 102.542-41.875, 110.375-96l-220.75,0 
	C 162.25,268.312, 165.459,279.042, 170.229,289z M 271,129c-30.417,0-57.938,12.291-78.146,32l 156.271,0 
	C 328.938,141.291, 301.417,129, 271,129z M 371.75,193L 170.229,193 c-4.77,9.958-7.979,20.688-9.604,32l 220.75,0 
	C 379.75,213.688, 376.541,202.958, 371.75,193z"  />
<glyph unicode="&#xe005;" d="M 382.872,187.75l-32.625,18.834c 1.042,5.666, 1.75,11.458, 1.75,17.416c0,5.979-0.708,11.792-1.792,17.458
	l 32.625,18.854c 15.333,8.875, 20.542,28.438, 11.729,43.688c-8.854,15.312-28.375,20.562-43.688,11.75l-32.938-19.021
	c-8.812,7.5-18.854,13.417-29.938,17.354L 287.995,352 c0,17.667-14.312,32-32,32c-17.666,0-32-14.333-32-32l0-37.896 
	c-11.083-3.938-21.125-9.855-29.937-17.354l-32.876,18.979c-15.312,8.833-34.896,3.604-43.749-11.708
	c-8.813-15.292-3.562-34.854, 11.749-43.688l 32.563-18.813c-1.062-5.688-1.751-11.521-1.751-17.521
	c0-5.958, 0.688-11.771, 1.751-17.438l-32.584-18.812c-15.334-8.834-20.584-28.438-11.729-43.75
	c 8.811-15.25, 28.395-20.5, 43.729-11.688l 32.833,18.979c 8.813-7.5, 18.875-13.458, 30-17.417L 223.994,96 c0-17.688, 14.334-32, 32-32
	c 17.688,0, 32,14.312, 32,32l0,37.917 c 11.125,3.958, 21.188,9.875, 29.958,17.395l 32.917-18.999c 15.312-8.812, 34.876-3.562, 43.688,11.688
	C 403.414,159.312, 398.185,178.875, 382.872,187.75z M 223.997,224c0,17.667, 14.312,32, 32,32c 17.667,0, 32-14.333, 32-32
	c0-17.666-14.333-32-32-32C 238.31,192, 223.997,206.334, 223.997,224z"  />
<glyph unicode="&#xe006;" d="M 208,416c 8.833,0, 16,7.167, 16,16L 224,464 c0,8.833-7.167,16-16,16s-16-7.167-16-16l0-32 
			C 192,423.167, 199.167,416, 208,416z M 332.438,373.833l 22.625,22.625c 6.249,6.25, 6.249,16.375,0,22.625
			c-6.25,6.25-16.375,6.25-22.625,0l-22.625-22.625c-6.25-6.25-6.25-16.375,0-22.625
			C 316.062,367.583, 326.188,367.583, 332.438,373.833z M 16,256l 32,0 c 8.833,0, 16,7.167, 16,16s-7.167,16-16,16L 16,288 
			c-8.833,0-16-7.167-16-16S 7.167,256, 16,256z M 352,272c0-8.833, 7.167-16, 16-16l 32,0 c 8.833,0, 16,7.167, 16,16s-7.167,16-16,16l-32,0 
			C 359.167,288, 352,280.833, 352,272z M 83.541,373.833c 6.251-6.25, 16.376-6.25, 22.625,0c 6.251,6.25, 6.251,16.375,0,22.625
			L 83.541,419.083c-6.25,6.25-16.374,6.25-22.625,0c-6.25-6.25-6.25-16.375,0-22.625L 83.541,373.833z M 400,224
			c-5.312,0-10.562-0.375-15.792-1.125c-16.771,22.875-39.124,40.333-64.458,51.5C 318.459,335, 268.938,384, 208,384
			c-61.75,0-112-50.25-112-112c0-17.438, 4.334-33.75, 11.5-48.438C 47.875,221.125,0,172.188,0,112c0-61.75, 50.25-112, 112-112
			c 13.688,0, 27.084,2.5, 39.709,7.333C 180.666-17.917, 217.5-32, 256-32c 38.542,0, 75.333,14.083, 104.291,39.333
			C 372.916,2.5, 386.312,0, 400,0c 61.75,0, 112,50.25, 112,112S 461.75,224, 400,224z M 208,352c 39.812,0, 72.562-29.167, 78.708-67.25
			c-10.021,2-20.249,3.25-30.708,3.25c-45.938,0-88.5-19.812-118.375-53.25C 131.688,245.917, 128,258.458, 128,272
			C 128,316.188, 163.812,352, 208,352z M 400,32c-17.125,0-32.916,5.5-45.938,14.667C 330.584,18.375, 295.624,0, 256,0
			c-39.625,0-74.584,18.375-98.062,46.667C 144.938,37.5, 129.125,32, 112,32c-44.188,0-80,35.812-80,80s 35.812,80, 80,80
			c 7.75,0, 15.062-1.458, 22.125-3.541c 2.812-0.792, 5.667-1.417, 8.312-2.521c 4.375,8.562, 9.875,16.396, 15.979,23.75
			C 181.792,237.812, 216.562,256, 256,256c 10.125,0, 19.834-1.458, 29.25-3.709c 10.562-2.499, 20.542-6.291, 29.834-11.291
			c 23.291-12.375, 42.416-31.542, 54.457-55.063C 378.938,189.812, 389.209,192, 400,192c 44.188,0, 80-35.812, 80-80S 444.188,32, 400,32z"  />
<glyph unicode="&#xe007;" d="M 271,353c 8.833,0, 16,7.167, 16,16L 287,401 c0,8.833-7.167,16-16,16s-16-7.167-16-16l0-32 
			C 255,360.167, 262.167,353, 271,353z M 271,65c-8.833,0-16-7.167-16-16l0-32 c0-8.833, 7.167-16, 16-16s 16,7.167, 16,16l0,32 
			C 287,57.833, 279.833,65, 271,65z M 146.562,107.166l-22.625-22.625c-6.25-6.249-6.25-16.374,0-22.624s 16.375-6.25, 22.625,0
			l 22.625,22.624c 6.25,6.271, 6.25,16.376,0,22.625C 162.938,113.417, 152.812,113.438, 146.562,107.166z M 127,209
			c0,8.833-7.167,16-16,16L 79,225 c-8.833,0-16-7.167-16-16s 7.167-16, 16-16l 32,0 C 119.833,193, 127,200.167, 127,209z M 146.541,310.833
			c 6.251-6.25, 16.376-6.25, 22.625,0c 6.251,6.25, 6.251,16.375,0,22.625l-22.625,22.625c-6.25,6.25-16.374,6.25-22.625,0
			c-6.25-6.25-6.25-16.375,0-22.625L 146.541,310.833z M 335,321c-11.188,0-21.812-2.167-32-5.208
			c-10.188,3.042-20.812,5.208-32,5.208c-61.75,0-112-50.25-112-112s 50.25-112, 112-112c 11.188,0, 21.812,2.166, 32,5.209
			c 10.188-3.043, 20.812-5.209, 32-5.209c 61.75,0, 112,50.25, 112,112S 396.75,321, 335,321z M 255.229,130.583
			C 218.583,137.916, 191,170.209, 191,209c0,38.792, 27.583,71.083, 64.229,78.417C 235.334,267.188, 223,239.542, 223,209
			S 235.334,150.812, 255.229,130.583z"  />
<glyph unicode="&#xe008;" d="M 435.062,217.834c 4.875,3.625, 9.812,7.188, 14.229,11.604c 13.208,13.229, 23.271,29.333, 29.792,47.854
	c 2.083,5.792, 0.604,12.292-3.772,16.625c-4.354,4.375-10.812,5.854-16.623,3.792c-35.396-12.5-73.688-4-99.896,22.25
	C 332.542,346.21, 324,384.48, 336.542,419.855c 2.042,5.813, 0.583,12.271-3.792,16.646c-4.333,4.333-10.812,5.834-16.625,3.791
	C 297.583,433.71, 281.5,423.669, 268.291,410.46c-33.541-33.5-43.979-81-32.479-123.792c-43.25-5.521-82.125-28.5-108.021-63.793
	c-5.229,0.75-10.479,1.125-15.792,1.125c-61.75,0-112-50.25-112-112.001c0-61.749, 50.25-111.999, 112-111.999
	c 13.688,0, 27.084,2.5, 39.709,7.334C 180.665-17.916, 217.499-32, 255.999-32c 38.542,0, 75.333,14.084, 104.291,39.334
	C 372.915,2.5, 386.311,0, 399.999,0c 61.75,0, 112,50.25, 112,111.999C 512,161.438, 479.583,203.021, 435.062,217.834z
	 M 290.916,387.834c 2.542,2.583, 5.271,4.979, 8.146,7.229c-2.25-35.979, 10.729-71.375, 37.104-97.729
	c 26.376-26.375, 61.771-39.333, 97.751-37.104c-13.792-17.584-32.792-28.521-53.126-33.188
	c-27.375,34.75-67.604,56.625-111.958,60.187C 256.562,321.188, 263.75,360.667, 290.916,387.834z M 400,32
	c-17.125,0-32.916,5.5-45.938,14.667C 330.583,18.375, 295.624,0, 256,0c-39.625,0-74.584,18.375-98.062,46.667
	C 144.938,37.5, 129.126,32, 112,32c-44.188,0-80,35.812-80,79.999c0,44.188, 35.812,80, 80,80c 10.812,0, 21.062-2.188, 30.438-6.062
	c 20.188,39.355, 59.75,66.896, 106.312,69.543c 2.438,0.145, 4.812,0.521, 7.25,0.521c 12.916,0, 25.312-2.021, 37-5.583
	c 15.791-4.834, 30.188-12.708, 42.688-22.854c 11.938-9.688, 21.938-21.562, 29.812-34.896c 1.333-2.25, 2.834-4.375, 4.041-6.729
	c 9.396,3.875, 19.668,6.062, 30.459,6.062c 44.188,0, 80-35.812, 80-80S 444.188,32, 400,32z"  />
<glyph unicode="&#xe009;" d="M 256,385c 8.833,0, 16,7.167, 16,16L 272,433 c0,8.833-7.167,16-16,16s-16-7.167-16-16l0-32 
			C 240,392.167, 247.167,385, 256,385z M 380.438,342.833l 22.625,22.625c 6.249,6.25, 6.249,16.375,0,22.625
			c-6.25,6.25-16.375,6.25-22.625,0l-22.625-22.625c-6.25-6.25-6.25-16.375,0-22.625S 374.188,336.583, 380.438,342.833z M 64,225l 32,0 
			c 8.833,0, 16,7.167, 16,16s-7.167,16-16,16L 64,257 c-8.833,0-16-7.167-16-16S 55.167,225, 64,225z M 400,241c0-8.833, 7.167-16, 16-16l 32,0 
			c 8.833,0, 16,7.167, 16,16s-7.167,16-16,16l-32,0 C 407.167,257, 400,249.833, 400,241z M 131.541,342.833c 6.251-6.25, 16.376-6.25, 22.625,0
			c 6.251,6.25, 6.251,16.375,0,22.625l-22.625,22.625c-6.25,6.25-16.374,6.25-22.625,0c-6.25-6.25-6.25-16.375,0-22.625
			L 131.541,342.833z M 145.625,225l 32,0 c-1.062,5.167-1.625,10.521-1.625,16c0,44.188, 35.812,80, 80,80c 44.188,0, 80-35.812, 80-80
			c0-5.479-0.562-10.833-1.625-16l 32,0 c 0.792,5.271, 1.625,10.521, 1.625,16c0,61.75-50.25,112-112,112s-112-50.25-112-112
			C 144,235.521, 144.875,230.271, 145.625,225z M 448,193L 64,193 c-8.833,0-16-7.167-16-16s 7.167-16, 16-16l 384,0 c 8.833,0, 16,7.167, 16,16
			S 456.833,193, 448,193z M 448,129L 64,129 c-8.833,0-16-7.167-16-16s 7.167-16, 16-16l 384,0 c 8.833,0, 16,7.167, 16,16S 456.833,129, 448,129z
			 M 448,65L 64,65 c-8.833,0-16-7.167-16-16s 7.167-16, 16-16l 384,0 c 8.833,0, 16,7.167, 16,16S 456.833,65, 448,65z"  />
<glyph unicode="&#xe00a;" d="M 33.604,224C 32.562,229.167, 32,234.521, 32,240
			c0,44.188, 35.812,80, 80,80c 10.812,0, 21.062-2.208, 30.438-6.083C 163.667,355.333, 206.291,384, 256,384s 92.334-28.667, 113.541-70.083
			C 378.938,317.792, 389.209,320, 400,320c 44.188,0, 80-35.812, 80-80c0-5.479-0.562-10.833-1.625-16l 32,0 
			c 0.792,5.271, 1.625,10.521, 1.625,16c0,61.75-50.25,112-112,112c-5.312,0-10.562-0.375-15.792-1.125
			C 354.334,391.583, 307.188,416, 256,416s-98.312-24.417-128.208-65.125C 122.562,351.625, 117.312,352, 112,352C 50.25,352,0,301.75,0,240
			c0-5.479, 0.854-10.729, 1.625-16L 33.604,224 z M 496,192L 16,192 c-8.833,0-16-7.167-16-16s 7.167-16, 16-16l 480,0 c 8.833,0, 16,7.167, 16,16
			S 504.833,192, 496,192z M 496,128L 16,128 c-8.833,0-16-7.167-16-16s 7.167-16, 16-16l 480,0 c 8.833,0, 16,7.167, 16,16S 504.833,128, 496,128z
			 M 496,64L 16,64 c-8.833,0-16-7.167-16-16s 7.167-16, 16-16l 480,0 c 8.833,0, 16,7.167, 16,16S 504.833,64, 496,64z"  />
<glyph unicode="&#xe00b;" d="M 112,320l 288,0 c 8.833,0, 16,7.167, 16,16s-7.167,16-16,16L 112,352 c-8.833,0-16-7.167-16-16S 103.167,320, 112,320z
			 M 400,288L 112,288 c-8.833,0-16-7.167-16-16s 7.167-16, 16-16l 288,0 c 8.833,0, 16,7.167, 16,16S 408.833,288, 400,288z M 400,224L 112,224 
			c-8.833,0-16-7.167-16-16s 7.167-16, 16-16l 288,0 c 8.833,0, 16,7.167, 16,16S 408.833,224, 400,224z M 400,160L 112,160 c-8.833,0-16-7.167-16-16
			s 7.167-16, 16-16l 288,0 c 8.833,0, 16,7.167, 16,16S 408.833,160, 400,160z"  />
<glyph unicode="&#xe00c;" d="M 400,320c-5.312,0-10.562-0.375-15.792-1.125
	C 354.334,359.583, 307.188,384, 256,384s-98.312-24.417-128.208-65.125C 122.562,319.625, 117.312,320, 112,320C 50.25,320,0,269.75,0,208
	c0-61.75, 50.25-112, 112-112c 13.688,0, 27.084,2.5, 39.709,7.333C 180.666,78.083, 217.5,64, 256,64
	c 38.542,0, 75.333,14.083, 104.291,39.333C 372.916,98.5, 386.312,96, 400,96c 61.75,0, 112,50.25, 112,112
	C 512,269.75, 461.75,320, 400,320z M 400,128c-17.125,0-32.916,5.5-45.938,14.667C 330.584,114.376, 295.624,96, 256,96
	c-39.625,0-74.584,18.376-98.062,46.667C 144.938,133.5, 129.125,128, 112,128c-44.188,0-80,35.812-80,80s 35.812,80, 80,80
	c 10.812,0, 21.062-2.208, 30.438-6.083C 163.667,323.333, 206.291,352, 256,352s 92.334-28.667, 113.541-70.083
	C 378.938,285.792, 389.209,288, 400,288c 44.188,0, 80-35.812, 80-80S 444.188,128, 400,128z"  />
<glyph unicode="&#xe00d;" d="M 400,416c-5.312,0-10.562-0.375-15.792-1.125C 354.334,455.583, 307.188,480, 256,480
	c-51.188,0-98.312-24.417-128.208-65.125C 122.562,415.625, 117.312,416, 112,416C 50.25,416,0,365.75,0,304s 50.25-112, 112-112
	c 13.688,0, 27.084,2.5, 39.709,7.333c 21.541-18.771, 47.416-31.291, 75.104-36.521L 192,128l 32-32l-32-96l 96,96l-32,32l 11,32.999
	c 34.458,2.438, 67.125,15.543, 93.291,38.334C 372.916,194.5, 386.312,192, 400,192c 61.75,0, 112,50.25, 112,112S 461.75,416, 400,416z
	 M 400,224c-17.125,0-32.916,5.5-45.938,14.667c-18.938-22.833-45.562-38.625-75.875-44.104L 256,192
	c-39.625,0-74.584,18.375-98.062,46.667C 144.938,229.5, 129.125,224, 112,224c-44.188,0-80,35.812-80,80s 35.812,80, 80,80
	c 10.812,0, 21.062-2.208, 30.438-6.083C 163.667,419.333, 206.291,448, 256,448s 92.334-28.667, 113.541-70.083
	C 378.938,381.792, 389.209,384, 400,384c 44.188,0, 80-35.812, 80-80S 444.188,224, 400,224z"  />
<glyph unicode="&#xe00e;" d="M 208,416c 8.833,0, 16,7.167, 16,16L 224,464 c0,8.833-7.167,16-16,16s-16-7.167-16-16l0-32 
			C 192,423.167, 199.167,416, 208,416z M 332.438,373.833l 22.625,22.625c 6.249,6.25, 6.249,16.375,0,22.625
			c-6.25,6.25-16.375,6.25-22.625,0l-22.625-22.625c-6.25-6.25-6.25-16.375,0-22.625
			C 316.062,367.583, 326.188,367.583, 332.438,373.833z M 16,256l 32,0 c 8.833,0, 16,7.167, 16,16s-7.167,16-16,16L 16,288 
			c-8.833,0-16-7.167-16-16S 7.167,256, 16,256z M 352,272c0-8.833, 7.167-16, 16-16l 32,0 c 8.833,0, 16,7.167, 16,16s-7.167,16-16,16l-32,0 
			C 359.167,288, 352,280.833, 352,272z M 83.541,373.833c 6.251-6.25, 16.376-6.25, 22.625,0c 6.251,6.25, 6.251,16.375,0,22.625
			L 83.541,419.083c-6.25,6.25-16.374,6.25-22.625,0c-6.25-6.25-6.25-16.375,0-22.625L 83.541,373.833z M 400,224
			c-5.312,0-10.562-0.375-15.792-1.125c-16.771,22.875-39.124,40.333-64.458,51.5C 318.459,335, 268.938,384, 208,384
			c-61.75,0-112-50.25-112-112c0-17.438, 4.334-33.75, 11.5-48.438C 47.875,221.125,0,172.188,0,112c0-61.75, 50.25-112, 112-112
			c 13.688,0, 27.084,2.5, 39.709,7.333C 180.666-17.917, 217.5-32, 256-32c 38.542,0, 75.333,14.083, 104.291,39.333
			C 372.916,2.5, 386.312,0, 400,0c 61.75,0, 112,50.25, 112,112S 461.75,224, 400,224z M 256,288c-45.938,0-88.5-19.812-118.375-53.25
			C 131.688,245.917, 128,258.458, 128,272c0,44.188, 35.812,80, 80,80c 39.812,0, 72.562-29.167, 78.708-67.25
			C 276.688,286.75, 266.459,288, 256,288z"  />
<glyph unicode="&#xe00f;" d="M 159.094,201.354l-1.042,0 l-33.521,51.188l-40.938,60.437l-31.75,0 l0-176.395 l 35.062,0 L 86.905,247.688 l 1.521,0 
			l 29.104-44.542l 44.688-66.562l 31.938,0 L 194.156,312.979 l-35.062,0 L 159.094,201.354 z M 206.469,125.834l 25.834,0 l 64.791,196.332l-26.125,0 L 206.469,125.834z
			 M 398.719,312.979l-35.833,0 l-61.979-176.395l 37.375,0 l 11.521,36.375l 61.459,0 l 10.749-36.375l 38.146,0 L 398.719,312.979z M 359.281,202.375
			l 7.146,23.292l 13.604,45.832l 1,0 l 13.854-46.604l 6.896-22.521L 359.281,202.374 z"  />
<glyph unicode="&#xe010;" d="M 248.082,216.068c-31.52,31.542-39.979,77.105-26.020,116.542
	c-15.25-5.395-29.668-13.833-41.854-26.020c-43.751-43.75-43.751-114.667,0-158.395c 43.729-43.73, 114.625-43.752, 158.374,0
	c 12.229,12.186, 20.646,26.604, 26.021,41.854C 325.188,176.090, 279.604,184.549, 248.082,216.068z"  />
<glyph unicode="&#xe011;" d="M 256,480C 114.604,480,0,365.396,0,224c0-141.375, 114.604-256, 256-256c 141.375,0, 256,114.625, 256,256
			C 512,365.396, 397.375,480, 256,480z M 256,32c-105.875,0-192,86.125-192,192S 150.125,416, 256,416s 192-86.125, 192-192S 361.875,32, 256,32
			z M 160,128l 128,64l 64,128l-128-64L 160,128z"  />
<glyph unicode="&#xe012;" d="M 288,119.125L 288,413.083 C 288,432.375, 273.666,448, 256,448
	c-17.667,0-32-15.625-32-34.917l0-293.958 c-19.042-11.083-32-31.501-32-55.125c0-35.333, 28.666-64, 64-64c 35.333,0, 64,28.667, 64,64
	C 320,87.624, 307.062,108.042, 288,119.125z"  />
<glyph unicode="&#xe013;" d="M 256,336c-61.75,0-112-50.25-112-112c0-61.749, 50.25-112, 112-112
			s 112,50.251, 112,112C 368,285.75, 317.75,336, 256,336z M 256,368c 8.833,0, 16,7.146, 16,16L 272,416 c0,8.833-7.167,16-16,16
			c-8.854,0-16-7.167-16-16l0-32 C 240,375.146, 247.146,368, 256,368z M 256,80c-8.854,0-16-7.167-16-16l0-32 c0-8.854, 7.146-16, 16-16
			c 8.833,0, 16,7.146, 16,16l0,32 C 272,72.833, 264.833,80, 256,80z M 380.417,325.833l 22.625,22.625c 6.25,6.25, 6.25,16.375,0,22.625
			c-6.251,6.25-16.375,6.25-22.625,0l-22.625-22.625c-6.251-6.25-6.251-16.375,0-22.625
			C 364.042,319.584, 374.166,319.584, 380.417,325.833z M 131.541,122.146l-22.623-22.625c-6.252-6.25-6.252-16.376,0-22.625
			c 6.249-6.25, 16.373-6.25, 22.623,0l 22.625,22.625c 6.251,6.291, 6.251,16.375,0,22.625
			C 147.917,128.396, 137.792,128.438, 131.541,122.146z M 112,224c0,8.833-7.167,16-16,16L 64,240 c-8.854,0-16-7.167-16-16
			c0-8.854, 7.146-16, 16-16l 32,0 C 104.833,208, 112,215.146, 112,224z M 448,240l-32,0 c-8.854,0-16-7.167-16-16c0-8.854, 7.146-16, 16-16l 32,0 
			c 8.833,0, 16,7.146, 16,16C 464,232.833, 456.833,240, 448,240z M 131.521,325.833c 6.249-6.25, 16.375-6.25, 22.625,0
			c 6.249,6.25, 6.249,16.375,0,22.625l-22.625,22.625c-6.25,6.25-16.376,6.25-22.625,0c-6.25-6.25-6.25-16.375,0-22.625
			L 131.521,325.833z M 380.459,122.188c-6.293,6.25-16.376,6.25-22.625,0c-6.25-6.249-6.293-16.375,0-22.625l 22.625-22.625
			c 6.249-6.249, 16.374-6.249, 22.625,0c 6.249,6.25, 6.249,16.376,0,22.625L 380.459,122.188z"  />
<glyph unicode="&#xe014;" d="M 192,96l 32-32l-32-96l 96,96l-32,32l 32,64L 192,96z M 512,345.167c0,49.146-40,89.124-89.167,89.124
			c-2.396,0-4.771-0.083-7.146-0.27C 392.562,462.854, 357.709,480, 320,480c-37.688,0-72.562-17.146-95.688-45.979
			c-2.375,0.187-4.771,0.27-7.188,0.27C 168,434.291, 128,394.312, 128,345.167c0-5.146, 0.688-10.125, 1.5-15.042
			c-0.542-0.708-1.188-1.354-1.708-2.083c-5.229,0.75-10.479,1.125-15.792,1.125c-61.75,0-112-50.25-112-112
			c0-61.751, 50.25-112, 112-112c 13.688,0, 27.084,2.499, 39.709,7.333c 1.104-0.959, 2.416-1.625, 3.541-2.562l 28.312,18.875
			c-9.438,6.688-18.25,14.125-25.625,23c-13-9.146-28.812-14.646-45.938-14.646c-44.188,0-80,35.791-80,80c0,44.167, 35.812,80, 80,80
			c 10.812,0, 21.062-2.209, 30.438-6.083c 0.562,1.083, 1.25,2, 1.812,3.042c 5.625,10.271, 12.562,19.667, 20.666,28.042
			c 23.084,23.896, 55.167,39, 91.084,39c 49.709,0, 92.334-28.667, 113.541-70.083c 5.646,2.333, 11.668,3.833, 17.875,4.833l 12.584,1.25
			c 12.334,0, 23.875-3.042, 34.312-8c 11.312-5.417, 21.021-13.375, 28.646-23.208c 10.5-13.521, 17.042-30.334, 17.042-48.792
			c0-44.209-35.812-80-80-80c-17.125,0-32.916,5.5-45.938,14.646c-14-16.875-32.438-29.562-53.146-37.562l-5.979-11.938l 18.25-18.25
			c 17.062,6.646, 33.021,16.188, 47.104,28.438c 12.625-4.834, 26.021-7.333, 39.709-7.333c 61.75,0, 112,50.249, 112,112
			c0,25.666-9.042,49.083-23.666,68C 502.916,301.042, 512,321.979, 512,345.167z M 465.562,307.542
			c-18.479,13.438-41,21.625-65.562,21.625c-5.312,0-10.562-0.375-15.792-1.125C 354.334,368.729, 307.188,393.167, 256,393.167
			c-34.125,0-66.312-11.062-92.938-30.354c 7.479,22.853, 28.729,39.478, 54.062,39.478c 7.75,0, 15.062-1.562, 21.75-4.333
			C 254.062,427.542, 284.5,448, 320,448s 65.958-20.458, 81.084-50.042c 6.729,2.771, 14.083,4.333, 21.749,4.333
			c 31.584,0, 57.167-25.583, 57.167-57.124C 480,330.667, 474.438,317.604, 465.562,307.542z"  />
<glyph unicode="&#xe015;" d="M 488.334,232.583c 14.624-18.916, 23.666-42.312, 23.666-68c0-61.749-50.25-112-112-112
	c-13.688,0-27.084,2.5-39.709,7.333c-28.958-25.249-65.749-39.333-104.291-39.333c-38.5,0-75.334,14.084-104.291,39.333
	c-12.625-4.833-26.021-7.333-39.709-7.333c-61.75,0-112,50.251-112,112c0,61.75, 50.25,112, 112,112
	c 5.312,0, 10.562-0.375, 15.792-1.125c 0.521,0.729, 1.166,1.375, 1.708,2.083c-0.812,4.938-1.5,9.896-1.5,15.041
	c0,49.167, 40,89.146, 89.125,89.146c 2.416,0, 4.812-0.104, 7.188-0.292c 23.125,28.854, 58,45.979, 95.688,45.979
	c 37.709,0, 72.562-17.125, 95.688-45.979c 2.375,0.188, 4.75,0.292, 7.146,0.292C 472,381.729, 512,341.75, 512,292.583
	C 512,269.417, 502.916,248.479, 488.334,232.583z"  />
<glyph unicode="&#xe016;" d="M 512,345.167c0,49.146-40,89.124-89.167,89.124c-2.396,0-4.771-0.083-7.146-0.27
	C 392.562,462.854, 357.709,480, 320,480c-37.688,0-72.562-17.146-95.688-45.979c-2.375,0.187-4.771,0.27-7.188,0.27
	C 168,434.291, 128,394.312, 128,345.167c0-5.146, 0.688-10.125, 1.5-15.042c-0.542-0.708-1.188-1.354-1.708-2.083
	c-5.229,0.75-10.479,1.125-15.792,1.125c-61.75,0-112-50.25-112-112c0-61.751, 50.25-112, 112-112c 13.688,0, 27.084,2.499, 39.709,7.333
	c 18.354-16, 40.104-26.938, 63.207-33.208L 192,64l 32-32l-32-64l 96,64l-32,32l 4.812,9.583c 36.75,1.125, 71.75,14.729, 99.479,38.917
	c 12.625-4.834, 26.021-7.333, 39.709-7.333c 61.75,0, 112,50.249, 112,112c0,25.666-9.042,49.083-23.666,68
	C 502.916,301.042, 512,321.979, 512,345.167z M 400,137.167c-17.125,0-32.916,5.5-45.938,14.646c-19-22.896-45.75-38.729-76.229-44.125
	l-23.771-2.312C 215.25,106, 181,124, 157.938,151.812c-13-9.146-28.812-14.646-45.938-14.646c-44.188,0-80,35.791-80,80
	c0,44.167, 35.812,80, 80,80c 10.812,0, 21.062-2.209, 30.438-6.083c 0.562,1.083, 1.25,2, 1.812,3.042
	c 5.625,10.271, 12.562,19.667, 20.666,28.042c 23.084,23.896, 55.167,39, 91.084,39c 49.709,0, 92.334-28.667, 113.541-70.083
	c 5.646,2.333, 11.668,3.833, 17.875,4.833l 12.584,1.25c 12.334,0, 23.875-3.042, 34.312-8c 11.312-5.417, 21.021-13.375, 28.646-23.208
	c 10.5-13.521, 17.042-30.334, 17.042-48.792C 480,172.958, 444.188,137.167, 400,137.167z M 465.562,307.542
	c-18.479,13.438-41,21.625-65.562,21.625c-5.312,0-10.562-0.375-15.792-1.125C 354.334,368.729, 307.188,393.167, 256,393.167
	c-34.125,0-66.312-11.062-92.938-30.354c 7.479,22.853, 28.729,39.478, 54.062,39.478c 7.75,0, 15.062-1.562, 21.75-4.333
	C 254.062,427.542, 284.5,448, 320,448s 65.958-20.458, 81.084-50.042c 6.729,2.771, 14.083,4.333, 21.749,4.333
	c 31.584,0, 57.167-25.583, 57.167-57.124C 480,330.667, 474.438,317.604, 465.562,307.542z"  />
<glyph unicode="&#xe017;" d="M 64,160.999l 384,0 c 8.833,0, 16,7.167, 16,16s-7.167,16-16,16L 64,192.999 c-8.833,0-16-7.167-16-16
			S 55.167,160.999, 64,160.999z M 448,128.999L 64,128.999 c-8.833,0-16-7.167-16-16s 7.167-16, 16-16l 384,0 c 8.833,0, 16,7.167, 16,16
			S 456.833,128.999, 448,128.999z M 448,64.999L 64,64.999 c-8.833,0-16-7.167-16-16s 7.167-16, 16-16l 384,0 c 8.833,0, 16,7.167, 16,16
			S 456.833,64.999, 448,64.999z M 205.042,225c-0.333,0.333-0.751,0.542-1.083,0.875c-37.438,37.438-37.438,98.334,0,135.792
			c 2.562,2.542, 5.27,4.958, 8.146,7.208c-2.251-35.958, 10.729-71.375, 37.104-97.729c 26.374-26.396, 61.79-39.333, 97.749-37.083
			c-2.667-3.396-5.874-6.125-8.896-9.062l 41.521,0 c 5.042,8.042, 9.25,16.75, 12.583,26.063c 2.021,5.854, 0.542,12.333-3.833,16.667
			c-4.291,4.354-10.792,5.854-16.624,3.791c-35.376-12.499-73.646-3.979-99.875,22.25c-26.251,26.25-34.792,64.521-22.251,99.896
			c 2.083,5.812, 0.583,12.271-3.791,16.646c-4.334,4.354-10.813,5.833-16.625,3.771c-18.521-6.542-34.625-16.604-47.833-29.792
			C 138.125,341.083, 132.479,274.521, 164.062,225L 205.042,225 z"  />
<glyph unicode="&#xe018;" d="M 512,239.999c0,49.167-40,89.146-89.167,89.146c-2.396,0-4.771-0.104-7.146-0.291
	c-23.125,28.854-57.979,45.978-95.688,45.978c-37.688,0-72.562-17.124-95.688-45.979c-2.375,0.188-4.771,0.291-7.188,0.291
	C 168,329.145, 128,289.166, 128,239.999c0-5.146, 0.688-10.104, 1.5-15.042c-0.542-0.708-1.188-1.354-1.708-2.083
	c-5.229,0.75-10.479,1.125-15.792,1.125C 50.25,223.999,0,173.75,0,112c0-61.751, 50.25-112, 112-112c 13.688,0, 27.084,2.5, 39.709,7.333
	C 180.666-17.917, 217.5-32, 256-32c 38.542,0, 75.333,14.083, 104.291,39.333C 372.916,2.5, 386.312,0, 400,0
	c 61.75,0, 112,50.249, 112,112c0,25.688-9.042,49.083-23.666,67.999C 502.916,195.895, 512,216.832, 512,239.999z M 400,32
	c-17.125,0-32.916,5.499-45.938,14.666C 330.583,18.375, 295.624,0, 256,0c-39.625,0-74.584,18.375-98.062,46.666
	C 144.938,37.499, 129.126,32, 112,32c-44.188,0-80,35.812-80,80s 35.812,79.999, 80,79.999c 10.812,0, 21.062-2.188, 30.438-6.062
	c 0.562,1.062, 1.25,2, 1.812,3.021c 5.625,10.271, 12.562,19.688, 20.666,28.042C 188,240.916, 220.083,256, 256,256
	c 49.709,0, 92.334-28.666, 113.541-70.062c 5.646,2.312, 11.668,3.813, 17.875,4.812L 400,192c 12.334,0, 23.875-3.042, 34.312-8
	c 11.312-5.416, 21.021-13.374, 28.646-23.188c 10.5-13.521, 17.042-30.354, 17.042-48.812C 480,67.812, 444.188,32, 400,32z
	 M 465.562,202.375c-18.479,13.458-41,21.624-65.562,21.624c-5.312,0-10.562-0.375-15.792-1.125
	c-29.874,40.708-77.021,65.125-128.208,65.125c-34.125,0-66.312-11.042-92.938-30.334c 7.479,22.854, 28.729,39.479, 54.062,39.479
	c 7.75,0, 15.062-1.562, 21.75-4.332c 15.188,29.562, 45.625,50.020, 81.125,50.020s 65.958-20.457, 81.084-50.020
	c 6.729,2.77, 14.083,4.332, 21.749,4.332c 31.584,0, 57.167-25.583, 57.167-57.146C 480,225.52, 474.438,212.458, 465.562,202.375z"  />
<glyph unicode="&#xe019;" d="M 400,416c-5.312,0-10.562-0.375-15.792-1.125C 354.334,455.583, 307.188,480, 256,480
			s-98.312-24.417-128.208-65.125C 122.562,415.625, 117.312,416, 112,416C 50.25,416,0,365.75,0,304s 50.25-112, 112-112
			c 13.688,0, 27.084,2.5, 39.709,7.333C 180.666,174.083, 217.5,160, 256,160c 38.542,0, 75.333,14.083, 104.291,39.333
			C 372.916,194.5, 386.312,192, 400,192c 61.75,0, 112,50.25, 112,112S 461.75,416, 400,416z M 96,160c-17.688,0-32-14.312-32-32
			s 14.312-32, 32-32s 32,14.312, 32,32S 113.688,160, 96,160z M 256,128c-17.688,0-32-14.312-32-32s 14.312-32, 32-32s 32,14.312, 32,32
			S 273.688,128, 256,128z M 416,160c-17.688,0-32-14.312-32-32s 14.312-32, 32-32s 32,14.312, 32,32S 433.688,160, 416,160z M 352,32
			c-17.688,0-32-14.312-32-32s 14.312-32, 32-32s 32,14.312, 32,32S 369.688,32, 352,32z M 160,32c-17.688,0-32-14.312-32-32
			s 14.312-32, 32-32s 32,14.312, 32,32S 177.688,32, 160,32z"  />
<glyph unicode="&#xe01a;" d="M 326.042,36.312l-18,10.376
			c 0.542,3.124, 0.958,6.311, 0.958,9.624c0,3.312-0.416,6.5-1,9.625l 18.042,10.396c 8.417,4.917, 11.291,15.729, 6.458,24.104
			c-4.876,8.479-15.667,11.375-24.125,6.5l-18.188-10.5c-4.876,4.146-10.375,7.396-16.5,9.604l0,20.896 
			c0,9.771-7.938,17.688-17.688,17.688s-17.666-7.917-17.666-17.688l0-20.875 c-6.126-2.188-11.646-5.479-16.521-9.625l-18.146,10.5
			c-8.479,4.875-19.292,2-24.167-6.479c-4.875-8.417-1.938-19.25, 6.5-24.126l 17.959-10.375c-0.584-3.146-0.959-6.334-0.959-9.646
			c0-3.313, 0.375-6.5, 0.959-9.624L 186,36.312c-8.459-4.875-11.375-15.75-6.5-24.188s 15.688-11.312, 24.125-6.438l 18.167,10.438
			c 4.874-4.125, 10.396-7.375, 16.542-9.562l0-20.938 c0-9.749, 7.916-17.624, 17.666-17.624s 17.688,7.875, 17.688,17.624l0,20.938 
			c 6.125,2.188, 11.688,5.438, 16.521,9.625l 18.167-10.5c 8.458-4.875, 19.249-2, 24.125,6.438
			C 337.375,20.562, 334.5,31.375, 326.042,36.312z M 256,38.625c-9.75,0-17.688,7.938-17.688,17.688s 7.938,17.646, 17.688,17.646
			s 17.667-7.896, 17.667-17.646S 265.75,38.625, 256,38.625z M 474.166,83.75l-12.083,3.208c-0.291,3.833-1.208,7.479-2.896,10.979
			l 8.771,8.771c 4.125,4.125, 4.104,10.792,0,14.854c-4.083,4.104-10.708,4.125-14.833,0l-8.791-8.75
			c-3.459,1.625-7.146,2.562-10.959,2.875l-3.209,12.062c-1.499,5.583-7.25,8.938-12.874,7.438
			c-5.604-1.521-8.875-7.271-7.417-12.875l 3.209-11.896c-1.584-1.084-3.084-2.292-4.5-3.667c-1.375-1.417-2.542-2.916-3.626-4.459
			l-11.896,3.209c-5.604,1.499-11.396-1.876-12.896-7.438c-1.499-5.625, 1.876-11.354, 7.417-12.875l 12-3.229
			c 0.334-3.771, 1.292-7.458, 2.979-10.959l-8.812-8.812c-4.083-4.104-4.062-10.729, 0.042-14.812
			c 4.083-4.083, 10.708-4.125, 14.792-0.042l 8.832,8.833c 3.459-1.707, 7.168-2.666, 11.001-2.957l 3.166-12.021
			c 1.542-5.604, 7.25-8.938, 12.876-7.438c 5.583,1.5, 8.957,7.249, 7.458,12.917l-3.209,11.896c 1.5,1.062, 3.042,2.25, 4.459,3.625
			c 1.375,1.396, 2.542,2.938, 3.624,4.479l 11.917-3.209c 5.604-1.5, 11.375,1.854, 12.854,7.417
			C 483.062,76.459, 479.75,82.208, 474.166,83.75z M 438.312,77.062c-4.125-4.125-10.771-4.104-14.875,0
			c-4.062,4.062-4.104,10.729,0,14.854c 4.104,4.083, 10.771,4.083, 14.875,0C 442.375,87.812, 442.375,81.125, 438.312,77.062z
			 M 118.938,137.5l-11.875-3.188c-1.104,1.5-2.25,3.021-3.646,4.438c-1.416,1.375-2.916,2.562-4.479,3.625l 3.188,11.938
			c 1.5,5.604-1.834,11.375-7.375,12.854c-5.625,1.5-11.375-1.834-12.875-7.417l-3.25-12.062c-3.812-0.312-7.458-1.25-10.938-2.896
			l-8.812,8.771c-4.125,4.125-10.75,4.104-14.834,0c-4.104-4.104-4.104-10.75,0-14.854l 8.771-8.771
			c-1.646-3.5-2.604-7.188-2.896-10.979l-12.042-3.208c-5.625-1.542-8.959-7.25-7.458-12.875c 1.521-5.583, 7.271-8.875, 12.896-7.417
			l 11.875,3.23c 1.062-1.604, 2.25-3.105, 3.688-4.501c 1.375-1.375, 2.875-2.604, 4.438-3.625l-3.188-11.896
			c-1.5-5.625, 1.834-11.417, 7.416-12.917c 5.626-1.5, 11.334,1.833, 12.834,7.438l 3.25,12c 3.812,0.312, 7.5,1.271, 11,2.938l 8.791-8.792
			c 4.084-4.124, 10.709-4.041, 14.834,0.042c 4.062,4.062, 4.125,10.708,0,14.812l-8.812,8.812c 1.688,3.46, 2.688,7.188, 2.938,11.001
			l 12.062,3.188c 5.562,1.521, 8.896,7.25, 7.396,12.875C 130.334,135.624, 124.584,138.958, 118.938,137.5z M 88.562,109.042
			c-4.104-4.104-10.75-4.104-14.875,0c-4.062,4.083-4.062,10.771,0,14.833c 4.125,4.083, 10.771,4.083, 14.875,0
			S 92.625,113.125, 88.562,109.042z M 512,304c0,61.75-50.25,112-112,112c-5.312,0-10.562-0.375-15.792-1.125
			C 354.334,455.583, 307.188,480, 256,480s-98.312-24.417-128.208-65.125C 122.562,415.625, 117.312,416, 112,416C 50.25,416,0,365.75,0,304
			s 50.25-112, 112-112c 13.688,0, 27.084,2.5, 39.709,7.333C 180.666,174.083, 217.5,160, 256,160c 38.542,0, 75.333,14.083, 104.291,39.333
			C 372.916,194.5, 386.312,192, 400,192C 461.75,192, 512,242.25, 512,304z"  />
<glyph unicode="&#xe01b;" d="M 400,416c-5.312,0-10.562-0.375-15.792-1.125C 354.334,455.583, 307.188,480, 256,480
			s-98.312-24.417-128.208-65.125C 122.562,415.625, 117.312,416, 112,416C 50.25,416,0,365.75,0,304s 50.25-112, 112-112
			c 13.688,0, 27.084,2.5, 39.709,7.333C 180.666,174.083, 217.5,160, 256,160c 38.542,0, 75.333,14.083, 104.291,39.333
			C 372.916,194.5, 386.312,192, 400,192c 61.75,0, 112,50.25, 112,112S 461.75,416, 400,416z M 400,224c-9.709,0-19.209,1.75-28.25,5.208
			l-18,6.917l-14.5-12.667C 316,203.167, 286.438,192, 256,192s-60,11.167-83.25,31.458l-14.5,12.667l-18-6.917
			c-9-3.458-18.541-5.208-28.25-5.208c-44.125,0-80,35.896-80,80s 35.875,80, 80,80c 3.792,0, 7.5-0.271, 11.25-0.792l 18.958-2.75
			l 11.354,15.458C 177.875,429.021, 215.209,448, 256,448c 40.812,0, 78.125-18.958, 102.417-52.063l 11.375-15.479l 18.999,2.75
			C 392.5,383.729, 396.208,384, 400,384c 44.125,0, 80-35.896, 80-80S 444.125,224, 400,224z M 96,160c-17.688,0-32-14.312-32-32
			s 14.312-32, 32-32s 32,14.312, 32,32S 113.688,160, 96,160z M 256,128c-17.688,0-32-14.312-32-32s 14.312-32, 32-32s 32,14.312, 32,32
			S 273.688,128, 256,128z M 416,160c-17.688,0-32-14.312-32-32s 14.312-32, 32-32s 32,14.312, 32,32S 433.688,160, 416,160z M 352,32
			c-17.688,0-32-14.312-32-32s 14.312-32, 32-32s 32,14.312, 32,32S 369.688,32, 352,32z M 160,32c-17.688,0-32-14.312-32-32
			s 14.312-32, 32-32s 32,14.312, 32,32S 177.688,32, 160,32z"  />
<glyph unicode="&#xe01c;" d="M 326.042,36.312l-18,10.376
			c 0.542,3.124, 0.958,6.311, 0.958,9.624c0,3.312-0.416,6.5-1,9.625l 18.042,10.396c 8.417,4.917, 11.291,15.729, 6.458,24.104
			c-4.876,8.479-15.667,11.375-24.125,6.5l-18.188-10.5c-4.876,4.146-10.375,7.396-16.5,9.604l0,20.896 
			c0,9.771-7.938,17.688-17.688,17.688s-17.666-7.917-17.666-17.688l0-20.875 c-6.126-2.188-11.646-5.479-16.521-9.625l-18.146,10.5
			c-8.479,4.875-19.292,2-24.167-6.479c-4.875-8.417-1.938-19.25, 6.5-24.126l 17.959-10.375c-0.584-3.146-0.959-6.334-0.959-9.646
			c0-3.313, 0.375-6.5, 0.959-9.624L 186,36.312c-8.459-4.875-11.375-15.75-6.5-24.188s 15.688-11.312, 24.125-6.438l 18.167,10.438
			c 4.874-4.125, 10.396-7.375, 16.542-9.562l0-20.938 c0-9.749, 7.916-17.624, 17.666-17.624s 17.688,7.875, 17.688,17.624l0,20.938 
			c 6.125,2.188, 11.688,5.438, 16.521,9.625l 18.167-10.5c 8.458-4.875, 19.249-2, 24.125,6.438
			C 337.375,20.562, 334.5,31.375, 326.042,36.312z M 256,38.625c-9.75,0-17.688,7.938-17.688,17.688s 7.938,17.646, 17.688,17.646
			s 17.667-7.896, 17.667-17.646S 265.75,38.625, 256,38.625z M 474.166,83.75l-12.083,3.208c-0.291,3.833-1.208,7.479-2.896,10.979
			l 8.771,8.771c 4.125,4.125, 4.104,10.792,0,14.854c-4.083,4.104-10.708,4.125-14.833,0l-8.791-8.75
			c-3.459,1.625-7.146,2.562-10.959,2.875l-3.209,12.062c-1.499,5.583-7.25,8.938-12.874,7.438
			c-5.604-1.521-8.875-7.271-7.417-12.875l 3.209-11.896c-1.584-1.084-3.084-2.292-4.5-3.667c-1.375-1.417-2.542-2.916-3.626-4.459
			l-11.896,3.209c-5.604,1.499-11.396-1.876-12.896-7.438c-1.499-5.625, 1.876-11.354, 7.417-12.875l 12-3.229
			c 0.334-3.771, 1.292-7.458, 2.979-10.959l-8.812-8.812c-4.083-4.104-4.062-10.729, 0.042-14.812
			c 4.083-4.083, 10.708-4.125, 14.792-0.042l 8.832,8.833c 3.459-1.707, 7.168-2.666, 11.001-2.957l 3.166-12.021
			c 1.542-5.604, 7.25-8.938, 12.876-7.438c 5.583,1.5, 8.957,7.249, 7.458,12.917l-3.209,11.896c 1.5,1.062, 3.042,2.25, 4.459,3.625
			c 1.375,1.396, 2.542,2.938, 3.624,4.479l 11.917-3.209c 5.604-1.5, 11.375,1.854, 12.854,7.417
			C 483.062,76.459, 479.75,82.208, 474.166,83.75z M 438.312,77.062c-4.125-4.125-10.771-4.104-14.875,0
			c-4.062,4.062-4.104,10.729,0,14.854c 4.104,4.083, 10.771,4.083, 14.875,0C 442.375,87.812, 442.375,81.125, 438.312,77.062z
			 M 118.938,137.5l-11.875-3.188c-1.104,1.5-2.25,3.021-3.646,4.438c-1.416,1.375-2.916,2.562-4.479,3.625l 3.188,11.938
			c 1.5,5.604-1.834,11.375-7.375,12.854c-5.625,1.5-11.375-1.834-12.875-7.417l-3.25-12.062c-3.812-0.312-7.458-1.25-10.938-2.896
			l-8.812,8.771c-4.125,4.125-10.75,4.104-14.834,0c-4.104-4.104-4.104-10.75,0-14.854l 8.771-8.771
			c-1.646-3.5-2.604-7.188-2.896-10.979l-12.042-3.208c-5.625-1.542-8.959-7.25-7.458-12.875c 1.521-5.583, 7.271-8.875, 12.896-7.417
			l 11.875,3.23c 1.062-1.604, 2.25-3.105, 3.688-4.501c 1.375-1.375, 2.875-2.604, 4.438-3.625l-3.188-11.896
			c-1.5-5.625, 1.834-11.417, 7.416-12.917c 5.626-1.5, 11.334,1.833, 12.834,7.438l 3.25,12c 3.812,0.312, 7.5,1.271, 11,2.938l 8.791-8.792
			c 4.084-4.124, 10.709-4.041, 14.834,0.042c 4.062,4.062, 4.125,10.708,0,14.812l-8.812,8.812c 1.688,3.46, 2.688,7.188, 2.938,11.001
			l 12.062,3.188c 5.562,1.521, 8.896,7.25, 7.396,12.875C 130.334,135.624, 124.584,138.958, 118.938,137.5z M 88.562,109.042
			c-4.104-4.104-10.75-4.104-14.875,0c-4.062,4.083-4.062,10.771,0,14.833c 4.125,4.083, 10.771,4.083, 14.875,0
			S 92.625,113.125, 88.562,109.042z M 512,304c0,61.75-50.25,112-112,112c-5.312,0-10.562-0.375-15.792-1.125
			C 354.334,455.583, 307.188,480, 256,480s-98.312-24.417-128.208-65.125C 122.562,415.625, 117.312,416, 112,416C 50.25,416,0,365.75,0,304
			s 50.25-112, 112-112c 13.688,0, 27.084,2.5, 39.709,7.333C 180.666,174.083, 217.5,160, 256,160c 38.542,0, 75.333,14.083, 104.291,39.333
			C 372.916,194.5, 386.312,192, 400,192C 461.75,192, 512,242.25, 512,304z M 354.062,238.667C 330.584,210.375, 295.624,192, 256,192
			c-39.625,0-74.584,18.375-98.062,46.667C 144.938,229.5, 129.125,224, 112,224c-44.188,0-80,35.812-80,80s 35.812,80, 80,80
			c 10.812,0, 21.062-2.208, 30.438-6.083C 163.667,419.333, 206.291,448, 256,448s 92.334-28.667, 113.541-70.083
			C 378.938,381.792, 389.209,384, 400,384c 44.188,0, 80-35.812, 80-80s-35.812-80-80-80C 382.875,224, 367.084,229.5, 354.062,238.667z"  />
<glyph unicode="&#xe01d;" d="M 326.042,36.312l-18,10.376
			c 0.542,3.124, 0.957,6.311, 0.957,9.624c0,3.312-0.415,6.5-0.999,9.625l 18.042,10.396c 8.417,4.917, 11.291,15.729, 6.458,24.104
			c-4.876,8.479-15.667,11.375-24.125,6.5l-18.188-10.5c-4.876,4.146-10.375,7.396-16.5,9.604l0,20.896 
			c0,9.771-7.938,17.688-17.688,17.688s-17.667-7.917-17.667-17.688l0-20.875 c-6.125-2.188-11.646-5.479-16.521-9.625l-18.146,10.5
			c-8.479,4.875-19.291,2-24.166-6.479c-4.875-8.417-1.938-19.25, 6.5-24.126l 17.959-10.375c-0.584-3.146-0.959-6.334-0.959-9.646
			c0-3.313, 0.375-6.5, 0.959-9.624L 186,36.312c-8.459-4.875-11.375-15.75-6.5-24.188s 15.688-11.312, 24.125-6.438l 18.167,10.438
			c 4.874-4.125, 10.396-7.375, 16.541-9.562l0-20.938 c0-9.749, 7.917-17.624, 17.667-17.624s 17.688,7.875, 17.688,17.624l0,20.938 
			c 6.125,2.188, 11.688,5.438, 16.521,9.625l 18.167-10.5c 8.458-4.875, 19.249-2, 24.125,6.438
			C 337.375,20.562, 334.5,31.375, 326.042,36.312z M 256,38.625c-9.75,0-17.688,7.938-17.688,17.688s 7.938,17.646, 17.688,17.646
			s 17.666-7.896, 17.666-17.646S 265.75,38.625, 256,38.625z M 400,416c-5.312,0-10.562-0.375-15.792-1.125
			C 354.333,455.583, 307.188,480, 256,480s-98.312-24.417-128.208-65.125C 122.562,415.625, 117.312,416, 112,416C 50.25,416,0,365.75,0,304
			s 50.25-112, 112-112c 13.688,0, 27.084,2.5, 39.709,7.333C 180.666,174.083, 217.5,160, 256,160c 38.542,0, 75.333,14.083, 104.291,39.333
			C 372.916,194.5, 386.312,192, 400,192c 61.75,0, 112,50.25, 112,112S 461.75,416, 400,416z"  />
<glyph unicode="&#xe01e;" d="M 417.042,409.208C 393.062,433.771, 359.917,448, 325.312,448
			c-34.562,0-67.688-14.229-91.665-38.792c-52.813-2.438-95.021-46.167-95.021-99.542c0-54.978, 44.709-99.708, 99.688-99.708
			c 5.834,0, 11.604,0.501, 17.271,1.5c 20.729-13.521, 44.917-20.833, 69.729-20.833c 24.854,0, 49.063,7.312, 69.772,20.833
			c 5.707-0.999, 11.458-1.5, 17.291-1.5c 54.937,0, 99.625,44.73, 99.625,99.708C 512,363.042, 469.812,406.792, 417.042,409.208z
			 M 144,223.312L 16,223.312 c-8.833,0-16-7.146-16-16c0-8.853, 7.167-16, 16-16l 128,0 c 8.833,0, 16,7.147, 16,16
			C 160,216.166, 152.833,223.312, 144,223.312z M 16,255.312l 64,0 c 8.833,0, 16,7.146, 16,16c0,8.854-7.167,16-16,16L 16,287.312 
			c-8.833,0-16-7.146-16-16C0,262.458, 7.167,255.312, 16,255.312z M 48,319.312l 64,0 c 8.833,0, 16,7.146, 16,16c0,8.854-7.167,16-16,16L 48,351.312 
			c-8.833,0-16-7.146-16-16C 32,326.458, 39.167,319.312, 48,319.312z M 224,96c0-17.688, 14.312-32, 32-32s 32,14.312, 32,32s-32,64-32,64
			S 224,113.688, 224,96z M 352,32c0-17.688, 14.312-32, 32-32s 32,14.312, 32,32s-32,64-32,64S 352,49.688, 352,32z"  />
<glyph unicode="&#xe01f;" d="M 326.042,132.312l-18,10.375c 0.542,3.125, 0.958,6.312, 0.958,9.625c0,3.312-0.416,6.5-1,9.625
			l 18.042,10.396c 8.417,4.917, 11.291,15.729, 6.458,24.104c-4.876,8.479-15.667,11.375-24.125,6.5l-18.188-10.5
			c-4.877,4.146-10.375,7.396-16.5,9.604l0,20.896 c0,9.771-7.938,17.688-17.688,17.688s-17.666-7.917-17.666-17.688l0-20.875 
			c-6.126-2.188-11.646-5.479-16.521-9.625l-18.146,10.5c-8.479,4.875-19.292,2-24.167-6.479c-4.875-8.417-1.938-19.25, 6.5-24.126
			l 17.959-10.375c-0.584-3.146-0.959-6.334-0.959-9.646s 0.375-6.5, 0.959-9.623L 186,132.312c-8.459-4.875-11.375-15.75-6.5-24.188
			s 15.688-11.312, 24.125-6.438l 18.167,10.438c 4.874-4.125, 10.396-7.375, 16.542-9.562l0-20.938 c0-9.749, 7.916-17.624, 17.666-17.624
			s 17.688,7.875, 17.688,17.624l0,20.938 c 6.125,2.188, 11.688,5.438, 16.521,9.625l 18.167-10.5c 8.458-4.875, 19.249-2, 24.125,6.438
			C 337.375,116.562, 334.5,127.375, 326.042,132.312z M 256,134.625c-9.75,0-17.688,7.938-17.688,17.688s 7.938,17.646, 17.688,17.646
			s 17.667-7.896, 17.667-17.646S 265.75,134.625, 256,134.625z M 400,416c-5.312,0-10.562-0.375-15.792-1.125
			C 354.334,455.583, 307.188,480, 256,480c-51.188,0-98.312-24.417-128.208-65.125C 122.562,415.625, 117.312,416, 112,416
			C 50.25,416,0,365.75,0,304s 50.25-112, 112-112c 11.812,0, 23.334,2.208, 34.438,5.834c 1.062,5.082, 2.729,10.041, 5.375,14.645
			c 3.938,6.854, 9.562,12.312, 16,16.502c-3.312,3.229-6.938,6.104-9.875,9.688C 144.938,229.5, 129.125,224, 112,224
			c-44.188,0-80,35.812-80,80c0,44.188, 35.812,80, 80,80c 10.812,0, 21.062-2.208, 30.438-6.083C 163.667,419.333, 206.291,448, 256,448
			s 92.334-28.667, 113.541-70.083C 378.938,381.792, 389.209,384, 400,384c 44.188,0, 80-35.812, 80-80c0-44.188-35.812-80-80-80
			c-17.125,0-32.916,5.5-45.938,14.667c-2.938-3.583-6.604-6.459-9.896-9.688c 6.459-4.207, 12.125-9.688, 16.042-16.562
			c 2.708-4.646, 4.354-9.584, 5.416-14.583C 376.688,194.208, 388.188,192, 400,192c 61.75,0, 112,50.25, 112,112S 461.75,416, 400,416z"  />
<glyph unicode="&#xe020;" d="M 326.042,36.312l-18,10.376
			c 0.542,3.124, 0.958,6.311, 0.958,9.624c0,3.312-0.416,6.5-1,9.625l 18.042,10.396c 8.417,4.917, 11.291,15.729, 6.458,24.104
			c-4.876,8.479-15.667,11.375-24.125,6.5l-18.188-10.5c-4.876,4.146-10.375,7.396-16.5,9.604l0,20.896 
			c0,9.771-7.938,17.688-17.688,17.688s-17.666-7.917-17.666-17.688l0-20.875 c-6.126-2.188-11.646-5.479-16.521-9.625l-18.146,10.5
			c-8.479,4.875-19.292,2-24.167-6.479c-4.875-8.417-1.938-19.25, 6.5-24.126l 17.959-10.375c-0.584-3.146-0.959-6.334-0.959-9.646
			c0-3.313, 0.375-6.5, 0.959-9.624L 186,36.312c-8.459-4.875-11.375-15.75-6.5-24.188s 15.688-11.312, 24.125-6.438l 18.167,10.438
			c 4.874-4.125, 10.396-7.375, 16.542-9.562l0-20.938 c0-9.749, 7.916-17.624, 17.666-17.624s 17.688,7.875, 17.688,17.624l0,20.938 
			c 6.125,2.188, 11.688,5.438, 16.521,9.625l 18.167-10.5c 8.458-4.875, 19.249-2, 24.125,6.438
			C 337.375,20.562, 334.5,31.375, 326.042,36.312z M 256,38.625c-9.75,0-17.688,7.938-17.688,17.688s 7.938,17.646, 17.688,17.646
			s 17.667-7.896, 17.667-17.646S 265.75,38.625, 256,38.625z M 400,416c-5.312,0-10.562-0.375-15.792-1.125
			C 354.334,455.583, 307.188,480, 256,480s-98.312-24.417-128.208-65.125C 122.562,415.625, 117.312,416, 112,416C 50.25,416,0,365.75,0,304
			s 50.25-112, 112-112c 13.688,0, 27.084,2.5, 39.709,7.333C 180.666,174.083, 217.5,160, 256,160c 38.542,0, 75.333,14.083, 104.291,39.333
			C 372.916,194.5, 386.312,192, 400,192c 61.75,0, 112,50.25, 112,112S 461.75,416, 400,416z M 400,224c-17.125,0-32.916,5.5-45.938,14.667
			C 330.584,210.375, 295.624,192, 256,192c-39.625,0-74.584,18.375-98.062,46.667C 144.938,229.5, 129.125,224, 112,224
			c-44.188,0-80,35.812-80,80s 35.812,80, 80,80c 10.812,0, 21.062-2.208, 30.438-6.083C 163.667,419.333, 206.291,448, 256,448
			s 92.334-28.667, 113.541-70.083C 378.938,381.792, 389.209,384, 400,384c 44.188,0, 80-35.812, 80-80S 444.188,224, 400,224z"  />
<glyph unicode="&#xe021;" d="M 400,416c-5.312,0-10.562-0.375-15.792-1.125
			C 354.334,455.583, 307.188,480, 256,480s-98.312-24.417-128.208-65.125C 122.562,415.625, 117.312,416, 112,416C 50.25,416,0,365.75,0,304
			s 50.25-112, 112-112c 13.688,0, 27.084,2.5, 39.709,7.333C 180.666,174.083, 217.5,160, 256,160c 38.542,0, 75.333,14.083, 104.291,39.333
			C 372.916,194.5, 386.312,192, 400,192c 61.75,0, 112,50.25, 112,112S 461.75,416, 400,416z M 225,0c0-17.688, 14.312-32, 32-32
			s 32,14.312, 32,32s-32,64-32,64S 225,17.688, 225,0z M 352,32c0-17.688, 14.312-32, 32-32s 32,14.312, 32,32s-32,64-32,64
			S 352,49.688, 352,32z M 96,96c0-17.688, 14.312-32, 32-32s 32,14.312, 32,32s-32,64-32,64S 96,113.688, 96,96z"  />
<glyph unicode="&#xe022;" d="M 417.042,409.208C 393.062,433.771, 359.917,448, 325.312,448
			c-34.562,0-67.688-14.229-91.665-38.792c-52.813-2.438-95.021-46.167-95.021-99.542c0-54.978, 44.709-99.708, 99.688-99.708
			c 5.834,0, 11.604,0.501, 17.271,1.5c 20.729-13.521, 44.917-20.833, 69.729-20.833c 24.854,0, 49.063,7.312, 69.772,20.833
			c 5.707-0.999, 11.458-1.5, 17.291-1.5c 54.938,0, 99.625,44.73, 99.625,99.708C 512,363.042, 469.812,406.792, 417.042,409.208z
			 M 412.375,241.958c-8.312,0-16.375,1.5-24,4.458c-17.5-15.25-39.75-23.792-63.063-23.792c-23.249,0-45.499,8.542-62.999,23.792
			c-7.625-2.959-15.75-4.458-24-4.458c-37.312,0-67.688,30.375-67.688,67.708c0,37.292, 30.375,67.667, 67.688,67.667
			c 3.188,0, 6.375-0.25, 9.521-0.688C 265.938,401.229, 294.375,416, 325.312,416c 30.938,0, 59.438-14.771, 77.501-39.354
			c 3.125,0.438, 6.312,0.688, 9.562,0.688c 37.312,0, 67.625-30.375, 67.625-67.667C 480,272.333, 449.688,241.958, 412.375,241.958z
			 M 144,223.312L 16,223.312 c-8.833,0-16-7.146-16-16c0-8.853, 7.167-16, 16-16l 128,0 c 8.833,0, 16,7.147, 16,16
			C 160,216.166, 152.833,223.312, 144,223.312z M 16,255.312l 64,0 c 8.833,0, 16,7.146, 16,16c0,8.854-7.167,16-16,16L 16,287.312 
			c-8.833,0-16-7.146-16-16C0,262.458, 7.167,255.312, 16,255.312z M 48,319.312l 64,0 c 8.833,0, 16,7.146, 16,16c0,8.854-7.167,16-16,16L 48,351.312 
			c-8.833,0-16-7.146-16-16C 32,326.458, 39.167,319.312, 48,319.312z M 224,96c0-17.688, 14.312-32, 32-32s 32,14.312, 32,32s-32,64-32,64
			S 224,113.688, 224,96z M 352,32c0-17.688, 14.312-32, 32-32s 32,14.312, 32,32s-32,64-32,64S 352,49.688, 352,32z"  />
<glyph unicode="&#xe023;" d="M 417.042,313.917c-23.979,24.542-57.125,38.771-91.73,38.771
			c-34.562,0-67.688-14.229-91.687-38.771c-52.812-2.459-95-46.188-95-99.584c0-54.958, 44.709-99.666, 99.688-99.666
			c 5.812,0, 11.604,0.5, 17.25,1.499c 20.75-13.541, 44.938-20.854, 69.749-20.854c 24.854,0, 49.063,7.313, 69.772,20.854
			c 5.707-0.999, 11.458-1.499, 17.291-1.499c 54.937,0, 99.625,44.708, 99.625,99.666C 512,267.729, 469.812,311.458, 417.042,313.917z
			 M 144,128L 16,128 c-8.833,0-16-7.167-16-16s 7.167-16, 16-16l 128,0 c 8.833,0, 16,7.167, 16,16S 152.833,128, 144,128z M 16,160l 64,0 
			c 8.833,0, 16,7.167, 16,16s-7.167,16-16,16L 16,192 c-8.833,0-16-7.167-16-16S 7.167,160, 16,160z M 48,224l 64,0 c 8.833,0, 16,7.167, 16,16
			s-7.167,16-16,16L 48,256 c-8.833,0-16-7.167-16-16S 39.167,224, 48,224z"  />
<glyph unicode="&#xe024;" d="M 417.042,313.917c-23.979,24.542-57.125,38.771-91.73,38.771
			c-34.562,0-67.688-14.229-91.665-38.771c-52.813-2.459-95.021-46.188-95.021-99.584c0-54.958, 44.709-99.666, 99.688-99.666
			c 5.834,0, 11.604,0.5, 17.271,1.499c 20.729-13.541, 44.917-20.854, 69.729-20.854c 24.854,0, 49.063,7.313, 69.772,20.854
			c 5.707-0.999, 11.458-1.499, 17.291-1.499c 54.937,0, 99.625,44.708, 99.625,99.666C 512,267.729, 469.812,311.458, 417.042,313.917z
			 M 412.375,146.667c-8.312,0-16.375,1.499-24,4.417c-17.5-15.25-39.75-23.772-63.063-23.772c-23.249,0-45.499,8.522-62.999,23.772
			c-7.625-2.918-15.75-4.417-24-4.417c-37.312,0-67.688,30.375-67.688,67.666c0,37.313, 30.375,67.688, 67.688,67.688
			c 3.188,0, 6.375-0.229, 9.521-0.688c 18.104,24.583, 46.541,39.354, 77.478,39.354c 30.938,0, 59.438-14.771, 77.501-39.354
			c 3.125,0.458, 6.312,0.688, 9.562,0.688c 37.312,0, 67.625-30.375, 67.625-67.688C 480,177.042, 449.688,146.667, 412.375,146.667z
			 M 144,128L 16,128 c-8.833,0-16-7.167-16-16s 7.167-16, 16-16l 128,0 c 8.833,0, 16,7.167, 16,16S 152.833,128, 144,128z M 16,160l 64,0 
			c 8.833,0, 16,7.167, 16,16s-7.167,16-16,16L 16,192 c-8.833,0-16-7.167-16-16S 7.167,160, 16,160z M 48,224l 64,0 c 8.833,0, 16,7.167, 16,16
			s-7.167,16-16,16L 48,256 c-8.833,0-16-7.167-16-16S 39.167,224, 48,224z"  />
<glyph unicode="&#xe025;" d="M 400,416c-5.312,0-10.562-0.375-15.792-1.125
			C 354.334,455.583, 307.188,480, 256,480s-98.312-24.417-128.208-65.125C 122.562,415.625, 117.312,416, 112,416C 50.25,416,0,365.75,0,304
			s 50.25-112, 112-112c 13.688,0, 27.084,2.5, 39.709,7.333C 180.666,174.083, 217.5,160, 256,160c 38.542,0, 75.333,14.083, 104.291,39.333
			C 372.916,194.5, 386.312,192, 400,192c 61.75,0, 112,50.25, 112,112S 461.75,416, 400,416z M 400,224c-17.125,0-32.916,5.5-45.938,14.667
			C 330.584,210.375, 295.624,192, 256,192c-39.625,0-74.584,18.375-98.062,46.667C 144.938,229.5, 129.125,224, 112,224
			c-44.188,0-80,35.812-80,80s 35.812,80, 80,80c 10.812,0, 21.062-2.208, 30.438-6.083C 163.667,419.333, 206.291,448, 256,448
			s 92.334-28.667, 113.541-70.083C 378.938,381.792, 389.209,384, 400,384c 44.188,0, 80-35.812, 80-80S 444.188,224, 400,224z M 225,0
			c0-17.688, 14.312-32, 32-32s 32,14.312, 32,32s-32,64-32,64S 225,17.688, 225,0z M 352,32c0-17.688, 14.312-32, 32-32s 32,14.312, 32,32
			s-32,64-32,64S 352,49.688, 352,32z M 96,96c0-17.688, 14.312-32, 32-32s 32,14.312, 32,32s-32,64-32,64S 96,113.688, 96,96z"  />
<glyph unicode="&#xe026;" d="M 400,384c-5.312,0-10.562-0.375-15.792-1.125
			C 354.334,423.583, 307.188,448, 256,448s-98.312-24.417-128.208-65.125C 122.562,383.625, 117.312,384, 112,384C 50.25,384,0,333.75,0,272
			c0-61.75, 50.25-112, 112-112c 13.688,0, 27.084,2.5, 39.709,7.333C 180.666,142.083, 217.5,128, 256,128
			c 38.542,0, 75.333,14.083, 104.291,39.333C 372.916,162.5, 386.312,160, 400,160c 61.75,0, 112,50.25, 112,112
			C 512,333.75, 461.75,384, 400,384z M 224,32c0-17.688, 14.312-32, 32-32s 32,14.312, 32,32s-32,64-32,64S 224,49.688, 224,32z"  />
<glyph unicode="&#xe027;" d="M 400,416c-5.312,0-10.562-0.375-15.792-1.125C 354.334,455.583, 307.188,480, 256,480
	c-51.188,0-98.312-24.417-128.208-65.125C 122.562,415.625, 117.312,416, 112,416C 50.25,416,0,365.75,0,304s 50.25-112, 112-112
	c 13.688,0, 27.084,2.5, 39.709,7.333c 21.541-18.771, 47.416-31.291, 75.104-36.521L 192,128l 32-32l-32-96l 96,96l-32,32l 11,32.999
	c 34.458,2.438, 67.125,15.543, 93.291,38.334C 372.916,194.5, 386.312,192, 400,192c 61.75,0, 112,50.25, 112,112S 461.75,416, 400,416z"  />
<glyph unicode="&#xe028;" d="M 400,320c-5.312,0-10.562-0.375-15.792-1.125
	C 354.334,359.583, 307.188,384, 256,384s-98.312-24.417-128.208-65.125C 122.562,319.625, 117.312,320, 112,320C 50.25,320,0,269.75,0,208
	c0-61.75, 50.25-112, 112-112c 13.688,0, 27.084,2.5, 39.709,7.333C 180.666,78.083, 217.5,64, 256,64
	c 38.542,0, 75.333,14.083, 104.291,39.333C 372.916,98.5, 386.312,96, 400,96c 61.75,0, 112,50.25, 112,112
	C 512,269.75, 461.75,320, 400,320z"  />
<glyph unicode="&#xe029;" d="M 400,384c-5.312,0-10.562-0.375-15.792-1.125
			C 354.334,423.583, 307.188,448, 256,448s-98.312-24.417-128.208-65.125C 122.562,383.625, 117.312,384, 112,384C 50.25,384,0,333.75,0,272
			c0-61.75, 50.25-112, 112-112c 13.688,0, 27.084,2.5, 39.709,7.333C 180.666,142.083, 217.5,128, 256,128
			c 38.542,0, 75.333,14.083, 104.291,39.333C 372.916,162.5, 386.312,160, 400,160c 61.75,0, 112,50.25, 112,112
			C 512,333.75, 461.75,384, 400,384z M 400,192c-17.125,0-32.916,5.5-45.938,14.667C 330.584,178.375, 295.624,160, 256,160
			c-39.625,0-74.584,18.375-98.062,46.667C 144.938,197.5, 129.125,192, 112,192c-44.188,0-80,35.812-80,80s 35.812,80, 80,80
			c 10.812,0, 21.062-2.208, 30.438-6.083C 163.667,387.333, 206.291,416, 256,416s 92.334-28.667, 113.541-70.083
			C 378.938,349.792, 389.209,352, 400,352c 44.188,0, 80-35.812, 80-80S 444.188,192, 400,192z M 224,32c0-17.688, 14.312-32, 32-32
			s 32,14.312, 32,32s-32,64-32,64S 224,49.688, 224,32z"  />
<glyph unicode="&#xe02a;" d="M 400,416c-5.312,0-10.562-0.375-15.792-1.125C 354.334,455.583, 307.188,480, 256,480
			c-51.188,0-98.312-24.417-128.208-65.125C 122.562,415.625, 117.312,416, 112,416C 50.25,416,0,365.75,0,304s 50.25-112, 112-112
			c 13.688,0, 27.084,2.5, 39.709,7.333c 12.291-10.708, 26.25-18.958, 40.916-25.416l 24.916,24.874
			c-23.458,7.626-44.166,21.271-59.604,39.876C 144.938,229.5, 129.125,224, 112,224c-44.188,0-80,35.812-80,80s 35.812,80, 80,80
			c 10.812,0, 21.062-2.208, 30.438-6.083C 163.667,419.333, 206.291,448, 256,448s 92.334-28.667, 113.541-70.083
			C 378.938,381.792, 389.209,384, 400,384c 44.188,0, 80-35.812, 80-80s-35.812-80-80-80c-17.125,0-32.916,5.5-45.938,14.667
			c-10.375-12.521-23.312-22.667-37.625-30.584L 303,167.75c 20.875,6.562, 40.5,16.938, 57.291,31.583
			C 372.916,194.5, 386.312,192, 400,192c 61.75,0, 112,50.25, 112,112S 461.75,416, 400,416z M 192,128l 32-32l-32-96l 96,96l-32,32l 32,96
			L 192,128z"  />
<glyph unicode="&#xe02b;" d="M 435.062,217.834c 4.875,3.625, 9.812,7.187, 14.229,11.604c 13.208,13.229, 23.271,29.333, 29.792,47.854
	c 2.083,5.792, 0.604,12.292-3.772,16.625c-4.354,4.375-10.812,5.854-16.623,3.792c-35.396-12.5-73.688-4-99.896,22.25
	c-26.249,26.25-34.791,64.521-22.249,99.896c 2.042,5.812, 0.583,12.271-3.792,16.646c-4.333,4.333-10.812,5.833-16.625,3.791
	c-18.542-6.583-34.625-16.625-47.834-29.833c-33.541-33.5-43.979-81-32.479-123.792c-43.25-5.521-82.125-28.5-108.021-63.792
	c-5.229,0.75-10.479,1.125-15.792,1.125c-61.75,0-112-50.249-112-112c0-61.75, 50.25-112, 112-112c 13.688,0, 27.084,2.501, 39.709,7.334
	C 180.665-17.916, 217.499-32, 255.999-32c 38.542,0, 75.333,14.084, 104.291,39.334c 12.625-4.833, 26.021-7.334, 39.709-7.334
	c 61.75,0, 112,50.25, 112,112C 512,161.438, 479.583,203.021, 435.062,217.834z M 290.916,387.833c 2.542,2.583, 5.271,4.979, 8.146,7.229
	c-2.25-35.979, 10.729-71.375, 37.104-97.729c 26.376-26.375, 61.771-39.333, 97.751-37.104c-13.792-17.584-32.792-28.521-53.126-33.188
	c-27.375,34.75-67.604,56.624-111.958,60.187C 256.562,321.187, 263.75,360.667, 290.916,387.833z"  />
<glyph unicode="&#xe02c;" d="M 209.167,303.625c-3.604,3.396-7.792,6.083-12.542,8.062c-4.812,1.938-9.938,2.938-15.375,2.938
			c-5.458,0-10.584-1-15.375-2.938c-4.75-1.979-8.938-4.667-12.541-8.062c-3.584-3.417-6.396-7.417-8.459-12.042
			c-2.042-4.605-3.062-9.479-3.062-14.583c0-5.125, 1.021-10, 3.062-14.605c 2.062-4.604, 4.875-8.625, 8.459-12.020
			c 3.604-3.417, 7.791-6.125, 12.541-8.063c 4.791-1.979, 9.917-2.958, 15.375-2.958c 5.438,0, 10.562,0.979, 15.375,2.958
			c 4.75,1.938, 8.938,4.646, 12.542,8.063c 3.583,3.395, 6.396,7.417, 8.416,12.020c 2.042,4.605, 3.104,9.479, 3.104,14.605
			c0,5.104-1.062,9.979-3.104,14.583C 215.562,296.209, 212.75,300.209, 209.167,303.625z M 193.812,264.959
			c-3.438-3.417-7.625-5.125-12.562-5.125s-9.125,1.709-12.562,5.125c-3.396,3.417-5.125,7.417-5.125,12.042
			c0,4.75, 1.729,8.833, 5.125,12.145c 3.438,3.333, 7.625,4.979, 12.562,4.979s 9.125-1.646, 12.562-4.979
			c 3.375-3.312, 5.104-7.395, 5.104-12.145C 198.916,272.375, 197.188,268.375, 193.812,264.959z M 335.25,168.209
			c-6.062-1.73-12.083-2.583-18.062-2.583c-3.938,0-7.812,0.604-11.646,1.79c-3.854,1.209-7.354,3.084-10.499,5.646
			c-3.167,2.563-5.73,5.834-7.667,9.854c-1.959,4-2.958,8.917-2.958,14.709l0,51.458 c0,5.792, 0.999,10.75, 2.958,14.854
			c 1.937,4.083, 4.459,7.417, 7.541,9.979c 3.084,2.562, 6.542,4.396, 10.5,5.5c 3.917,1.105, 7.834,1.667, 11.771,1.667
			c 5.979,0, 12.124-0.875, 18.437-2.688c 6.313-1.791, 12.188-4.999, 17.668-9.604l 16.896,27.146
			c-6.854,5.958-14.979,10.312-24.479,13.062c-9.459,2.708-19.292,4.083-29.543,4.083c-8.354,0-16.583-1.208-24.583-3.584
			c-8.021-2.396-15.146-5.979-21.375-10.75c-6.208-4.792-11.271-10.708-15.083-17.791c-3.875-7.084-5.791-15.333-5.791-24.708
			l0-66.042 c0-9.562, 1.979-17.875, 5.916-24.959c 3.917-7.084, 9.041-12.979, 15.334-17.666c 6.332-4.708, 13.479-8.229, 21.499-10.625
			c 8.042-2.375, 16.229-3.584, 24.604-3.584c 10.396,0, 20.271,1.542, 29.688,4.604c 9.375,3.083, 17.312,7.354, 23.812,12.792
			l-16.646,27.146C 347.416,173.125, 341.292,169.896, 335.25,168.209z"  />
<glyph unicode="&#xe02d;" d="M 208.531,302.729c-3.604,3.396-7.791,6.084-12.541,8.062c-4.812,1.938-9.938,2.938-15.375,2.938
			c-5.459,0-10.584-1-15.375-2.938c-4.75-1.979-8.938-4.667-12.542-8.062c-3.583-3.416-6.396-7.416-8.459-12.041
			c-2.042-4.605-3.062-9.479-3.062-14.584c0-5.125, 1.020-10, 3.062-14.604c 2.063-4.604, 4.876-8.625, 8.459-12.021
			c 3.604-3.416, 7.792-6.125, 12.542-8.062c 4.791-1.979, 9.916-2.958, 15.375-2.958c 5.438,0, 10.562,0.979, 15.375,2.958
			c 4.75,1.938, 8.938,4.646, 12.541,8.062c 3.584,3.396, 6.396,7.417, 8.416,12.021c 2.042,4.604, 3.105,9.479, 3.105,14.604
			c0,5.104-1.063,9.979-3.105,14.584C 214.927,295.313, 212.115,299.313, 208.531,302.729z M 193.177,264.063
			c-3.438-3.417-7.625-5.126-12.562-5.126s-9.125,1.709-12.562,5.126c-3.396,3.416-5.125,7.416-5.125,12.041
			c0,4.75, 1.729,8.833, 5.125,12.146c 3.438,3.333, 7.625,4.979, 12.562,4.979s 9.125-1.646, 12.562-4.979
			c 3.374-3.312, 5.104-7.396, 5.104-12.146C 198.281,271.479, 196.551,267.479, 193.177,264.063z M 370.822,279.167l0,31.5 L 249.24,310.667 l0-176.396 
			l 35.063,0 l0,71.938 l 73.979,0 l0,31.479 l-73.979,0 l0,41.479 L 370.822,279.167 z"  />
<glyph unicode="&#xe02e;" d="M 512,184.778 L 256,383.491 L 0,184.777 L 0,265.796 L 256,464.509 L 512,265.795 ZM 448,192 L 448,0 L 320,0 L 320,128 L 192,128 L 192,0 L 64,0 L 64,192 L 256,336 Z"  />
<glyph unicode="&#xe031;" d="M 448,352L 448,416 L0,416 l0-352 c0-17.673, 14.327-32, 32-32l 432,0 c 26.511,0, 48,21.489, 48,48L 512,352 L 448,352 z M 416,64L 32,64 L 32,384 l 384,0 L 416,64 zM 64,320L 384,320L 384,288L 64,288zM 256,256L 384,256L 384,224L 256,224zM 256,192L 384,192L 384,160L 256,160zM 256,128L 352,128L 352,96L 256,96zM 64,256L 224,256L 224,96L 64,96z"  />
<glyph unicode="&#xe032;" d="M0-32l 256,0 L 256,480 L0,480 L0-32 z M 160,416l 64,0 l0-64 l-64,0 L 160,416 z M 160,288l 64,0 l0-64 l-64,0 L 160,288 z M 160,160l 64,0 l0-64 l-64,0 L 160,160 z M 32,416l 64,0 l0-64 L 32,352 L 32,416 z M 32,288
			l 64,0 l0-64 L 32,224 L 32,288 z M 32,160l 64,0 l0-64 L 32,96 L 32,160 zM 288,320L 512,320L 512,288L 288,288zM 288-32L 352-32L 352,96L 448,96L 448-32L 512-32L 512,256L 288,256 		z"  />
<glyph unicode="&#xe033;" d="M 432,480 C 476.182,480 512,444.183 512,400 C 512,381.99 506.045,365.371 496,352 L 464,320 L 352,432 L 384,464 C 397.371,474.045 413.989,480 432,480 ZM 32,112L0-32l 144,32l 296,296L 328,408L 32,112z M 357.789,298.211l-224-224l-27.578,27.578l 224,224L 357.789,298.211z"  />
<glyph unicode="&#xe037;" d="M 192,384 C 315.712,384 416,283.711 416,160 L 368,160 C 368,207.012 349.693,251.209 316.451,284.451 C 283.209,317.693 239.011,336 192,336 L 192,384 ZM 192,480 C 368.73,480 512,336.73 512,160 L 464,160 C 464,196.74 456.815,232.357 442.645,265.859 C 428.947,298.243 409.328,327.337 384.333,352.333 C 359.337,377.329 330.243,396.948 297.859,410.645 C 264.357,424.815 228.741,432 192,432 L 192,480 ZM 287.195,255.196 C 309.074,233.318 319.993,204.643 319.98,175.971 C 288,127.973 288,64 288,64 C 160,64 64-32 64-32 L 57-25 L 45.435-13.435 L 187.226,128.356 C 188.784,128.123 190.377,128 192,128 C 209.673,128 224,142.327 224,160 C 224,177.673 209.673,192 192,192 C 174.327,192 160,177.673 160,160 C 160,158.377 160.123,156.783 160.356,155.226 L 18.565,13.435 L 0,32 C 0,32 96,128 96,256 C 96,256 159.999,256 207.999,288 C 236.663,288 265.326,277.065 287.195,255.196 Z"  />
<glyph unicode="&#xe038;" d="M 447.97,163.249c-0.006,0.353-0.015,0.701-0.021,1.053c-0.016,0.714-0.035,1.427-0.059,2.14C 442.875,324.266, 256,480, 256,480
		S 69.123,324.266, 64.11,166.439c-0.022-0.715-0.044-1.426-0.060-2.141c-0.007-0.352-0.015-0.701-0.021-1.053
		c-0.018-1.080-0.028-2.162-0.028-3.248c0-1.184, 0.014-2.361, 0.035-3.539c 0.002-0.098, 0.003-0.195, 0.007-0.293
		C 66.082,51.899, 151.241-32, 256-32c 104.758,0, 189.916,83.899, 191.959,188.168c 0.002,0.098, 0.004,0.196, 0.005,0.293
		c 0.021,1.178, 0.036,2.357, 0.036,3.539C 448,161.086, 447.988,162.168, 447.97,163.249z M 383.975,157.63l-0.004-0.203
		c-0.659-33.643-14.266-65.167-38.313-88.774C 321.587,45.017, 289.743,32, 256,32c-6.231,0-12.397,0.447-18.462,1.319
		c 69.528,41.423, 116.108,117.352, 116.108,204.161c0,9.728-0.59,19.317-1.726,28.74c 20.136-36.97, 31.032-71.4, 32.001-101.813
		l 0.002-0.072c 0.016-0.474, 0.026-0.946, 0.039-1.422l 0.014-0.724C 383.99,161.461, 384,160.73, 384,160
		C 384,159.208, 383.99,158.419, 383.975,157.63z"  />
<glyph unicode="&#xe03a;" d="M 64,352l0-320 l 448,0 L 512,352 L 64,352 z M 480,85.333L 416,192l-72.533-60.444L 288,224L 96,64L 96,320 l 384,0 L 480,85.333 zM 128,240A48,48 7740 1 1 224,240A48,48 7740 1 1 128,240zM 448,416L0,416L0,96L 32,96L 32,384L 448,384 	z"  />
<glyph unicode="&#xe03b;" d="M0,416l0-416 l 512,0 L 512,416 L0,416 z M 480,32L 32,32 L 32,384 l 448,0 L 480,32 zM 352,304A48,48 2700 1 1 448,304A48,48 2700 1 1 352,304zM 448,64 L 64,64 L 160,320 L 288,160 L 352,208 Z"  />
<glyph unicode="&#xe03e;" d="M 320,192 C 372.935,192 420.935,170.467 455.701,135.701 L 410.467,90.467 C 387.29,113.645 355.289,128 320,128 C 284.711,128 252.711,113.645 229.533,90.467 L 184.299,135.701 C 219.065,170.467 267.065,192 320,192 ZM 93.726,226.274 C 154.166,286.714 234.525,320 320,320 C 405.475,320 485.834,286.714 546.275,226.274 L 501.020,181.020 L 501.020,181.020 C 452.667,229.372 388.38,256 320,256 C 251.619,256 187.333,229.372 138.981,181.019 L 93.726,226.274 ZM 494.392,412.781 C 547.743,390.215 595.65,357.917 636.783,316.783 L 636.783,316.783 L 591.529,271.529 C 519.001,344.057 422.569,384 320,384 C 217.43,384 121,344.057 48.471,271.529 L 3.216,316.784 C 44.35,357.917 92.257,390.215 145.608,412.781 C 200.86,436.15 259.534,448 320,448 C 380.466,448 439.139,436.15 494.392,412.781 ZM 288,32A32,32 2700 1 1 352,32A32,32 2700 1 1 288,32z" horiz-adv-x="640"  />
<glyph unicode="&#xe03d;" d="M 512,265.372c0,100.463-29.396,181.969-65.741,182.613c 0.146,0.003, 0.289,0.015, 0.436,0.015l-41.471,0 
	c0,0-97.4-73.168-237.615-101.877c-4.28-22.646-7.015-49.637-7.015-80.751c0-31.114, 2.733-58.104, 7.015-80.75
	c 140.214-28.709, 237.615-101.878, 237.615-101.878l 41.471,0 c-0.146,0-0.289,0.012-0.436,0.016C 482.607,83.404, 512,164.909, 512,265.372
	z M 432.412,110.374c-4.691,0-9.766,4.871-12.373,7.774c-6.315,7.032-12.396,17.98-17.594,31.664
	c-11.628,30.616-18.033,71.655-18.033,115.562c0,43.905, 6.405,84.945, 18.033,115.561c 5.197,13.684, 11.281,24.633, 17.594,31.664
	c 2.607,2.906, 7.682,7.776, 12.373,7.776c 4.69,0, 9.768-4.872, 12.372-7.776c 6.317-7.032, 12.398-17.979, 17.594-31.664
	c 11.629-30.615, 18.034-71.656, 18.034-115.561c0-43.902-6.405-84.944-18.034-115.562c-5.195-13.684-11.281-24.632-17.594-31.664
	C 442.18,115.245, 437.104,110.374, 432.412,110.374z M 125.906,265.372c0,25.975, 1.905,51.215, 5.526,74.547
	c-23.686-3.277-44.471-5.162-70.17-5.162c-33.529,0-33.529,0-33.529,0L0,287.414l0-44.085 l 27.73-47.343c0,0,0,0, 33.53,0
	c 25.699,0, 46.484-1.887, 70.17-5.162C 127.812,214.156, 125.906,239.397, 125.906,265.372z M 184.075,158.914l-63.999,12.255
	l 40.921-160.772c 2.118-8.317, 10.372-12.519, 18.343-9.327l 59.278,23.726c 7.972,3.188, 11.164,11.982, 7.098,19.542L 184.075,158.914zM 432.412,205.635c-1.809,0-3.764,1.877-4.769,2.996c-2.435,2.71-4.778,6.93-6.781,12.204
	c-4.481,11.8-6.95,27.617-6.95,44.539c0,16.922, 2.469,32.739, 6.95,44.539c 2.003,5.274, 4.348,9.494, 6.781,12.204
	c 1.005,1.12, 2.96,2.997, 4.769,2.997c 1.808,0, 3.765-1.878, 4.769-2.997c 2.435-2.71, 4.778-6.929, 6.78-12.204
	c 4.482-11.799, 6.951-27.617, 6.951-44.539c0-16.921-2.469-32.739-6.951-44.539c-2.002-5.274-4.348-9.494-6.78-12.204
	C 436.177,207.512, 434.221,205.635, 432.412,205.635z"  />
<glyph unicode="&#xe02f;" d="M0,416l0-384 l 512,0 L 512,416 L0,416 z M 96,64L 32,64 l0,64 l 64,0 L 96,64 z M 96,192L 32,192 l0,64 l 64,0 L 96,192 z M 96,320L 32,320 L 32,384 l 64,0 L 96,320 z M 384,64L 128,64 L 128,384 l 256,0 L 384,64 z
		 M 480,64l-64,0 l0,64 l 64,0 L 480,64 z M 480,192l-64,0 l0,64 l 64,0 L 480,192 z M 480,320l-64,0 L 416,384 l 64,0 L 480,320 zM 192,320L 192,128L 320,224 	z"  />
<glyph unicode="&#xe030;" d="M 152,176c0-57.438, 46.562-104, 104-104s 104,46.562, 104,104s-46.562,104-104,104S 152,233.438, 152,176z M 480,352L 368,352 
	c-8,32-16,64-48,64L 192,416 c-32,0-40-32-48-64L 32,352 c-17.6,0-32-14.4-32-32l0-288 c0-17.6, 14.4-32, 32-32l 448,0 c 17.6,0, 32,14.4, 32,32L 512,320 
	C 512,337.6, 497.6,352, 480,352z M 256,34c-78.425,0-142,63.574-142,142c0,78.425, 63.575,142, 142,142c 78.426,0, 142-63.575, 142-142
	C 398,97.574, 334.427,34, 256,34z M 480,256l-64,0 l0,32 l 64,0 L 480,256 z"  />
<glyph unicode="&#xe034;" d="M 160,384 L 512,480 L 512,448 L 512,384 L 512,112 C 512,67.817 461.855,32 400,32 C 338.145,32 288,67.817 288,112 C 288,156.183 338.145,192 400,192 C 417.179,192 433.451,189.234 448,184.297 L 448,349.091 L 224,288 L 224,48 C 224,3.817 173.856-32 112-32 C 50.144-32 0,3.817 0,48 C 0,92.183 50.144,128 112,128 C 129.179,128 145.451,125.234 160,120.297 L 160,288 L 160,384 Z"  />
<glyph unicode="&#xe035;" d="M 448,416l0-416 L 112,0 c-26.511,0-48,21.49-48,48c0,26.509, 21.489,48, 48,48l 304,0 L 416,480 L 96,480 C 60.801,480, 32,451.2, 32,416l0-384 
		c0-35.2, 28.801-64, 64-64l 384,0 L 480,416 L 448,416 zM 128,64L 416,64L 416,32L 128,32z"  />
<glyph unicode="&#xe036;" d="M 432,480L 48,480 C 21.6,480,0,458.4,0,432l0-416 c0-26.4, 21.6-48, 48-48l 384,0 c 26.4,0, 48,21.6, 48,48L 480,432 C 480,458.4, 458.4,480, 432,480z M 416,32L 64,32 
		L 64,416 l 352,0 L 416,32 zM 128,192L 352,192L 352,160L 128,160zM 128,128L 352,128L 352,96L 128,96zM 160,336A48,48 4860 1 1 256,336A48,48 4860 1 1 160,336zM 240,288l-64,0 c-26.4,0-48-14.4-48-32l0-32 l 160,0 l0,32 C 288,273.6, 266.4,288, 240,288z"  />
<glyph unicode="&#xe039;" d="M 451.716,380.285l-71.432,71.431C 364.728,467.272, 334,480, 312,480L 72,480 C 50,480, 32,462, 32,440l0-432 c0-22, 18-40, 40-40l 368,0 c 22,0, 40,18, 40,40
	L 480,312 C 480,334, 467.272,364.729, 451.716,380.285z M 429.089,357.657c 1.565-1.565, 3.125-3.487, 4.64-5.657L 352,352 L 352,433.728 
	c 2.17-1.515, 4.092-3.075, 5.657-4.64L 429.089,357.657z M 448,8c0-4.336-3.664-8-8-8L 72,0 c-4.336,0-8,3.664-8,8L 64,440 c0,4.336, 3.664,8, 8,8
	l 240,0 c 2.416,0, 5.127-0.305, 8-0.852L 320,320 l 127.148,0 c 0.547-2.873, 0.852-5.583, 0.852-8L 448,8 z"  />
<glyph unicode="&#xe03c;" d="M 416,352l-96,0 L 320,384 L 224,480L0,480 l0-384 l 192,0 l0-128 l 320,0 L 512,256 L 416,352z M 416,306.745L 466.745,256L 416,256 L 416,306.745 z M 224,434.745L 274.745,384L 224,384 
	L 224,434.745 z M 32,448l 160,0 l0-96 l 96,0 l0-224 L 32,128 L 32,448 z M 480,0L 224,0 l0,96 l 96,0 L 320,320 l 64,0 l0-96 l 96,0 L 480,0 z"  />
<glyph unicode="&#xe03f;" d="M 432,416l-32,0 l0-32 l 16,0 l0-256 L 288,128 l0-128 L 96,0 L 96,384 l 16,0 L 112,416 L 80,416 c-8.801,0-16-7.2-16-16l0-416 c0-8.8, 7.199-16, 16-16l 252,0 l 116,116L 448,400 
	C 448,408.8, 440.8,416, 432,416z M 320,0l0,96 l 96,0 L 320,0zM 384,416l-64,0 L 320,448 c0,17.6-14.4,32-32,32l-64,0 c-17.602,0-32-14.4-32-32l0-32 l-64,0 l0-64 l 256,0 L 384,416 z M 288,416l-64,0 L 224,447.943 
	c 0.017,0.019, 0.036,0.039, 0.057,0.057l 63.884,0 c 0.021-0.018, 0.041-0.038, 0.059-0.057L 288,416 z"  />
<glyph unicode="&#xe040;" d="M 0,320 L 512,320 L 480,0 L 32,0 L 0,320 Z M 464,384 L 480,352 L 32,352 L 64,416 L 240,416 L 256,384 L 464,384 Z"  />
<glyph unicode="&#xe041;" d="M 496,448L 384,448 c-26.4,0-63.273-15.273-81.941-33.941L 113.941,225.941c-18.667-18.667-18.667-49.214,0-67.882l 140.118-140.117
	c 18.667-18.668, 49.214-18.668, 67.882,0l 188.117,188.117C 528.727,224.727, 544,261.6, 544,288L 544,400 C 544,426.4, 522.4,448, 496,448z M 432,288
	c-26.51,0-48,21.49-48,48s 21.49,48, 48,48s 48-21.49, 48-48S 458.51,288, 432,288zM 43.313,180.687 L 214.502,9.498 C 196.37-0.082 173.271,2.729 158.059,17.942 L 17.941,158.059 C -0.726,176.727 -0.726,207.274 17.941,225.941 L 206.059,414.059 C 224.727,432.727 261.6,448 288,448 L 43.313,203.314 C 37.091,197.091 37.091,186.91 43.313,180.687 Z" horiz-adv-x="544"  />
<glyph unicode="&#xe042;" d="M 287.998,320L 351.997,256.001L 224,128.004L 160.001,192.003zM 500.763,331.248l-36.758,36.758l-16.004-16.004c-8.189-8.19-19.505-13.255-32-13.255
		c-24.994,0-45.257,20.261-45.257,45.255c0,12.501, 5.070,23.819, 13.267,32.009l 15.994,15.993l-36.759,36.758
		c-14.984,14.984-39.504,14.984-54.488,0L 11.238,171.243c-14.983-14.984-14.983-39.505,0-54.488l 36.76-36.759l 15.981,15.982
		c 8.191,8.203, 19.515,13.276, 32.022,13.276c 24.994,0, 45.255-20.262, 45.255-45.255c0-12.503-5.070-23.82-13.267-32.011l-15.992-15.993
		l 36.758-36.759c 14.983-14.983, 39.504-14.983, 54.488,0l 297.52,297.52C 515.745,291.744, 515.745,316.264, 500.763,331.248z
		 M 224.001,64.002l-128,128l 192,192l 128-128L 224.001,64.002z"  />
<glyph unicode="&#xe043;" d="M 488.791,382.769c-16.992,4.854-34.705-4.985-39.56-21.978L 446.72,352L 148.249,352 l-4.496,35.969
		C 141.751,403.983, 128.138,416, 112,416L 32,416 C 14.327,416,0,401.673,0,384s 14.327-32, 32-32l 51.751,0 l 28.496-227.969
		C 114.249,108.018, 127.862,96, 144,96l 272,0 c 14.287,0, 26.844,9.472, 30.769,23.209l 64,224
		C 515.624,360.202, 505.784,377.914, 488.791,382.769z M 256,224l0,32 l 63.998,0 l0-32 L 256,224 z M 319.998,192l0-32 L 256,160 l0,32 L 319.998,192 z M 256,288l0,32 
		l 63.998,0 l0-32 L 256,288 z M 152.249,320L 224,320 l0-32 l-67.751,0 L 152.249,320z M 160.249,256L 224,256 l0-32 l-59.751,0 L 160.249,256z M 168.249,192L 224,192 l0-32 l-51.751,0 
		L 168.249,192z M 391.862,160l-39.864,0 l0,32 l 49.007,0 L 391.862,160z M 410.148,224l-58.15,0 l0,32 l 67.293,0 L 410.148,224z M 428.434,288l-76.436,0 
		l0,32 l 85.579,0 L 428.434,288zM 128,16A48,48 2700 1 1 224,16A48,48 2700 1 1 128,16zM 320,16A48,48 2700 1 1 416,16A48,48 2700 1 1 320,16z"  />
<glyph unicode="&#xe044;" d="M 240,448C 107.452,448,0,340.548,0,208c0-132.549, 107.452-240, 240-240c 132.549,0, 240,107.451, 240,240
		C 480,340.548, 372.549,448, 240,448z M 240,16c-106.039,0-192,85.961-192,192c0,106.039, 85.961,192, 192,192
		c 106.039,0, 192-85.961, 192-192C 432,101.961, 346.039,16, 240,16zM 256,224l0,64 l 64,0 l0,32 l-64,0 l0,32 l-32,0 l0-32 l-64,0 l0-128 l 64,0 l0-64 l-64,0 l0-32 l 64,0 l0-32 l 32,0 l0,32 l 64,0 l 0.001,0 L 320,224L 256,224 z M 224,224l-32,0 l0,64 l 32,0 L 224,224 z
	 M 288.001,128L 256,128 l0,64 l 32.001,0 L 288.001,128 z"  />
<glyph unicode="&#xe045;" d="M 464,416L 48,416 C 21.6,416,0,394.4,0,368l0-288 c0-26.4, 21.6-48, 48-48l 416,0 c 26.4,0, 48,21.6, 48,48L 512,368 C 512,394.4, 490.4,416, 464,416z M 48,384
		l 416,0 c 8.673,0, 16-7.327, 16-16l0-48 L 32,320 l0,48 C 32,376.673, 39.327,384, 48,384z M 464,64L 48,64 c-8.673,0-16,7.327-16,16L 32,224 l 448,0 l0-144 
		C 480,71.327, 472.673,64, 464,64zM 64,160L 96,160L 96,96L 64,96zM 128,160L 160,160L 160,96L 128,96zM 192,160L 224,160L 224,96L 192,96z"  />
<glyph unicode="&#xe046;" d="M 192,448L 32,448 C 14.4,448,0,433.6,0,416l0-160 c0-17.6, 14.398-32, 32-32l 160,0 c 17.6,0, 32,14.4, 32,32L 224,416 C 224,433.6, 209.6,448, 192,448z
	 M 192,320L 32,320 l0,32 l 160,0 L 192,320 z M 448,448L 288,448 c-17.602,0-32-14.4-32-32l0-416 c0-17.6, 14.398-32, 32-32l 160,0 c 17.6,0, 32,14.4, 32,32L 480,416 
	C 480,433.6, 465.6,448, 448,448z M 448,160L 288,160 l0,32 l 160,0 L 448,160 z M 448,256L 288,256 l0,32 l 160,0 L 448,256 z M 192,192L 32,192 c-17.6,0-32-14.4-32-32l0-160 
	c0-17.6, 14.398-32, 32-32l 160,0 c 17.6,0, 32,14.4, 32,32L 224,160 C 224,177.6, 209.6,192, 192,192z M 192,64l-64,0 l0-64 L 96,0 l0,64 L 32,64 l0,32 l 64,0 l0,64 l 32,0 l0-64 l 64,0 
	L 192,64 z"  />
<glyph unicode="&#xe047;" d="M 256,480C 114.615,480,0,365.385,0,224s 114.615-256, 256-256s 256,114.615, 256,256S 397.385,480, 256,480z M 160,224
	c0,53.020, 42.98,96, 96,96s 96-42.98, 96-96s-42.98-96-96-96S 160,170.98, 160,224z M 462.99,138.262L 462.99,138.262l-88.71,36.745
	C 380.539,190.099, 384,206.645, 384,224s-3.461,33.901-9.72,48.993l 61.063,25.293l 27.647,11.452C 473.944,283.327, 480,254.373, 480,224
	C 480,193.627, 473.943,164.673, 462.99,138.262L 462.99,138.262z M 341.739,430.99L 341.739,430.99L 341.739,430.99l-36.745-88.71
	C 289.902,348.539, 273.356,352, 256,352s-33.901-3.461-48.993-9.72l-17.23,41.599l-19.515,47.112C 196.673,441.943, 225.628,448, 256,448
	C 286.373,448, 315.327,441.943, 341.739,430.99z M 49.010,309.738l 47.112-19.515l 41.599-17.23C 131.462,257.901, 128,241.355, 128,224
	s 3.461-33.901, 9.72-48.993l-88.71-36.745C 38.057,164.673, 32,193.627, 32,224C 32,254.373, 38.057,283.327, 49.010,309.738z
	 M 170.262,17.010l 11.452,27.647l 25.293,61.063C 222.099,99.461, 238.645,96, 256,96s 33.901,3.461, 48.993,9.72l 36.745-88.71l0,0l0,0
	C 315.327,6.058, 286.373,0, 256,0C 225.628,0, 196.673,6.057, 170.262,17.010z"  />
<glyph unicode="&#xe049;" d="M 329.372,105.372L 224,210.745L 224,352L 288,352L 288,237.255L 374.628,150.628 	zM 256,480C 114.615,480,0,365.385,0,224s 114.615-256, 256-256s 256,114.615, 256,256S 397.385,480, 256,480z M 256,32
		c-106.039,0-192,85.961-192,192c0,106.039, 85.961,192, 192,192c 106.039,0, 192-85.961, 192-192C 448,117.961, 362.039,32, 256,32z"  />
<glyph unicode="&#xe04a;" d="M 336,384L 176,448L0,384l0-384 l 176,64l 160-64l 176,64L 512,448 L 336,384z M 192,407.135l 128-51.2l0-315.069 l-128,51.199L 192,407.135 z M 32,361.586
	l 128,46.545l0-315.9 L 32,45.687L 32,361.586 z M 480,86.414l-128-46.546l0,315.9 l 128,46.545L 480,86.414 z"  />
<glyph unicode="&#xe04b;" d="M 256,480C 167.634,480, 96,408.366, 96,320c0-160, 160-352, 160-352s 160,192, 160,352C 416,408.366, 344.365,480, 256,480z M 256,224
	c-53.020,0-96,42.98-96,96s 42.98,96, 96,96s 96-42.98, 96-96S 309.020,224, 256,224z"  />
<glyph unicode="&#xe04c;" d="M 272,480l-48-48l 48-48L 160,256L 48,256 l 88-88L0-12.308L0-32 l 19.692,0 L 200,104l 88-88L 288,128 l 128,112l 48-48l 48,48L 272,480z M 224,208l-32,32
	l 112,112l 32-32L 224,208z"  />
<glyph unicode="&#xe04d;" d="M 464,416L 48,416 C 21.6,416,0,394.4,0,368l0-320 c0-26.4, 21.6-48, 48-48l 416,0 c 26.4,0, 48,21.6, 48,48L 512,368 C 512,394.4, 490.4,416, 464,416z
	 M 199.37,204.814L 64,99.368L 64,350.189 L 199.37,204.814z M 88.19,352L 423.81,352 L 256,226L 88.19,352z M 204.644,199.151L 256,144l 51.355,55.151
	L 412.632,64L 99.368,64 L 204.644,199.151z M 312.63,204.814L 448,350.189l0-250.821 L 312.63,204.814z"  />
<glyph unicode="&#xe04e;" d="M 480,352c 17.673,0, 32,14.327, 32,32L 512,448 l-64,0 L 448,480 L 32,480 C 14.4,480,0,465.601,0,448l0-448 c0-17.6, 14.398-32, 32-32l 416,0 L 448,96 l 32,0 
	c 17.673,0, 32,14.327, 32,32l0,64 l-64,0 l0,32 l 32,0 c 17.673,0, 32,14.327, 32,32l0,64 l-64,0 l0,32 L 480,352 z M 288,351.835
	c 35.255,0, 63.835-28.58, 63.835-63.835s-28.58-63.835-63.835-63.835c-35.255,0-63.835,28.58-63.835,63.835
	S 252.745,351.835, 288,351.835z M 128,0L 96,0 L 96,448 l 32,0 L 128,0 z M 384,96L 192,96 l0,32 c0,35.347, 28.654,64, 64,64l0,0 l 64,0 c 35.348,0, 64-28.653, 64-64
	L 384,96 z"  />
<glyph unicode="&#xe04f;" d="M 352,160c-32-32-32-64-64-64s-64,32-96,64s-64,64-64,96s 32,32, 64,64S 128,448, 96,448S0,352,0,352c0-64, 65.75-193.75, 128-256
	s 192-128, 256-128c0,0, 96,64, 96,96S 384,192, 352,160z"  />
<glyph unicode="&#xe050;" d="M 256,416C 132.288,416, 32,315.712, 32,192s 100.288-224, 224-224s 224,100.288, 224,224S 379.712,416, 256,416z M 256,12
	c-99.412,0-180,80.589-180,180c0,99.412, 80.588,180, 180,180c 99.411,0, 180-80.588, 180-180C 436,92.589, 355.411,12, 256,12z
	 M 467.392,336.413C 475.413,350.439, 480,366.684, 480,384c0,53.020-42.98,96-96,96c-30.909,0-58.401-14.611-75.96-37.298
	C 373.982,429.084, 430.643,390.103, 467.392,336.413z M 203.96,442.702C 186.402,465.389, 158.909,480, 128,480C 74.98,480, 32,437.020, 32,384
	c0-17.316, 4.587-33.561, 12.608-47.587C 81.358,390.103, 138.019,429.084, 203.96,442.702z M 224,320l 32,0 l0-160 l-32,0 L 224,320 z M 256,192l 96,0 l0-32 l-96,0 
	L 256,192 z"  />
<glyph unicode="&#xe048;" d="M 160,288L 224,288L 224,224L 160,224zM 256,288L 320,288L 320,224L 256,224zM 352,288L 416,288L 416,224L 352,224zM 64,96L 128,96L 128,32L 64,32zM 160,96L 224,96L 224,32L 160,32zM 256,96L 320,96L 320,32L 256,32zM 160,192L 224,192L 224,128L 160,128zM 256,192L 320,192L 320,128L 256,128zM 352,192L 416,192L 416,128L 352,128zM 64,192L 128,192L 128,128L 64,128zM 416,480l0-32 l-64,0 L 352,480 L 128,480 l0-32 L 64,448 L 64,480 L0,480 l0-512 l 480,0 L 480,480 L 416,480 z M 448,0L 32,0 L 32,352 l 416,0 L 448,0 z"  />
<glyph unicode="&#xe051;" d="M 352,384L 160,384 L0,192l0-80 l0-48 c0-17.673, 14.327-32, 32-32l 448,0 c 17.674,0, 32,14.327, 32,32l0,48 l0,80 L 352,384z M 384,192l-64-64L 192,128 
	l-64,64L 41.655,192 l 133.333,160l 162.024,0 l 133.333-160L 384,192 z"  />
<glyph unicode="&#xe052;" d="M 352,384L 160,384 L0,192l0-128 c0-17.673, 14.327-32, 32-32l 448,0 c 17.674,0, 32,14.327, 32,32L 512,192 L 352,384z M 320,128L 192,128 l-32,32l 192,0 
		L 320,128z M 41.655,192l 133.333,160l 162.024,0 l 133.333-160L 41.655,192 zM 142.482,288L 369.518,288L 342.851,320L 169.148,320 	zM 89.149,224L 422.852,224L 396.185,256L 115.815,256 	z"  />
<glyph unicode="&#xe053;" d="M 416,448L 96,448 L0,352l0-336 c0-8.837, 7.163-16, 16-16l 480,0 c 8.836,0, 16,7.163, 16,16L 512,352 L 416,448z M 256,64L 96,192l 96,0 l0,96 l 128,0 l0-96 l 96,0 
	L 256,64z M 77.255,384l 32,32l 293.489,0 l 32-32L 77.255,384 z"  />
<glyph unicode="&#xe055;" d="M 416,448L 96,448 L0,352l0-336 c0-8.837, 7.163-16, 16-16l 480,0 c 8.836,0, 16,7.163, 16,16L 512,352 L 416,448z M 320,160l0-96 L 192,64 l0,96 L 96,160 l 160,128
	l 160-128L 320,160 z M 77.255,384l 32,32l 293.488,0 l 32-32L 77.255,384 z"  />
<glyph unicode="&#xe054;" d="M 380.931-32C 437.794,71.016, 447.375,228.153, 224,222.912L 224,96 L 32,288L 224,480l0-124.186 
	C 491.481,362.785, 521.285,119.707, 380.931-32z"  />
<glyph unicode="&#xe056;" d="M 288,355.814L 288,480 l 192-192L 288,96L 288,222.912 C 64.625,228.153, 74.206,71.016, 131.070-32
	C-9.286,119.707, 20.52,362.785, 288,355.814z"  />
<glyph unicode="&#xe057;" d="M 544,29.417 C 544,6.667 557.014-13.037 576-22.675 L 576-30.644 C 570.687-31.371 565.264-31.756 559.75-31.756 C 525.746-31.756 495.076-17.492 473.389,5.376 C 460.278,1.885 446.388,0 432,0 C 352.471,0 288,57.308 288,128 C 288,198.692 352.471,256 432,256 C 511.529,256 576,198.692 576,128 C 576,100.326 566.118,74.704 549.322,53.767 C 545.91,46.355 544,38.111 544,29.417 ZM 256,480 C 395.229,480 508.496,389.693 511.918,277.24 C 487.327,288.2 460.125,294 432,294 C 384.22,294 339.092,277.277 304.931,246.911 C 269.508,215.425 250,173.194 250,128 C 250,105.664 254.772,84.056 263.868,64.106 C 261.254,64.043 258.634,64 256,64 C 242.422,64 229.095,64.867 216.088,66.522 C 161.099,11.533 95.463,1.672 32,0.224 L 32,13.682 C 66.268,30.471 96,61.052 96,96 C 96,100.877 95.621,105.665 94.918,110.348 C 37.020,148.48 0,206.725 0,272 C 0,386.875 114.615,480 256,480 Z" horiz-adv-x="576"  />
<glyph unicode="&#xe058;" d="M 311.413,128.632c-11.055,1.759-11.307,32.157-11.307,32.157s 32.484,32.158, 39.564,75.401
	c 19.045,0, 30.809,45.973, 11.761,62.148C 352.226,315.365, 375.911,432, 256,432c-119.911,0-96.225-116.635-95.432-133.662
	c-19.047-16.175-7.285-62.148, 11.761-62.148c 7.079-43.243, 39.564-75.401, 39.564-75.401s-0.252-30.398-11.307-32.157
	C 164.976,122.966, 32,64.315, 32,0l 224,0 l 224,0 C 480,64.315, 347.024,122.966, 311.413,128.632z"  />
<glyph unicode="&#xe059;" d="M 367.497,77.313c-9.476,1.494-9.692,27.327-9.692,27.327s 27.844,27.328, 33.912,64.076
	c 16.326,0, 26.407,39.069, 10.082,52.814c 0.681,14.47, 20.984,113.588-81.799,113.588c-102.782,0-82.479-99.118-81.799-113.588
	c-16.327-13.745-6.244-52.814, 10.081-52.814c 6.067-36.748, 33.913-64.076, 33.913-64.076s-0.216-25.833-9.692-27.327
	C 241.979,72.497, 128,22.655, 128-32l 192,0 l 192,0 C 512,22.655, 398.021,72.497, 367.497,77.313zM 172.027,68.595c 22.047,13.575, 48.813,26.154, 70.769,33.712c-7.876,11.216-16.647,26.468-22.165,44.531
	c-7.703,6.283-13.972,15.266-17.999,26.301c-4.033,11.052-5.561,23.426-4.304,34.842c 0.902,8.196, 3.239,15.833, 6.825,22.544
	c-2.175,23.293-3.707,69.017, 26.224,102.366c 11.607,12.933, 26.278,22.23, 43.85,27.843C 272.090,393.114, 255.647,431.119, 192,431.119
	c-102.782,0-82.479-99.118-81.799-113.588c-16.327-13.745-6.244-52.814, 10.081-52.814c 6.067-36.748, 33.913-64.076, 33.913-64.076
	s-0.216-25.833-9.692-27.327C 113.979,168.497,0,118.655,0,64l 164.798,0 C 167.153,65.537, 169.551,67.070, 172.027,68.595z"  />
<glyph unicode="&#xe05a;" d="M 112.5,256 C 174.356,256 224.5,205.855 224.5,144 C 224.5,82.144 174.356,32 112.5,32 C 50.644,32 0.5,82.144 0.5,144 L 0,160 C 0,283.712 100.288,384 224,384 L 224,320 C 181.263,320 141.083,303.357 110.863,273.137 C 105.046,267.319 99.737,261.129 94.948,254.627 C 100.667,255.527 106.528,256 112.5,256 ZM 400.5,256 C 462.355,256 512.5,205.855 512.5,144 C 512.5,82.144 462.355,32 400.5,32 C 338.645,32 288.5,82.144 288.5,144 L 288,160 C 288,283.712 388.288,384 512,384 L 512,320 C 469.263,320 429.083,303.357 398.863,273.137 C 393.045,267.319 387.736,261.129 382.947,254.627 C 388.667,255.527 394.527,256 400.5,256 Z"  />
<glyph unicode="&#xe05b;" d="M 364.496,224C 433.373,267.667, 480,351.604, 480,448c0,10.838-0.596,21.517-1.739,32L 33.74,480 C 32.595,469.516, 32,458.837, 32,448
		c0-96.396, 46.627-180.333, 115.503-224C 78.627,180.333, 32,96.396, 32,0c0-10.838, 0.595-21.517, 1.739-32l 444.521,0 
		c 1.144,10.483, 1.739,21.162, 1.739,32C 480,96.396, 433.373,180.333, 364.496,224z M 80,0c0,93.456, 40.081,172.707, 112,198.854
		l0,50.293 l0,0 C 120.081,275.292, 80,354.543, 80,448l0,0 l 352,0 l0,0 c0-93.457-40.081-172.708-112-198.853l0-50.293 
		C 391.919,172.707, 432,93.456, 432,0L 80,0 zM 309.813,145.203c-35.827,20.322-37.804,46.684-37.813,62.683L 272,240 c0,15.997, 1.902,42.457, 37.872,62.832
		c 19.252,11.182, 35.904,28.174, 48.524,49.168L 153.605,352 c 12.633-21.016, 29.306-38.021, 48.583-49.203
		c 35.827-20.322, 37.803-46.683, 37.813-62.683L 240.001,208 c0-15.996-1.902-42.457-37.872-62.832c-36.311-21.090-63.369-62.842-71.545-113.168
		l 250.835,0 C 373.237,82.354, 346.154,124.124, 309.813,145.203z"  />
<glyph unicode="&#xe05d;" d="M 512,224c-0.639,33.431-7.892,66.758-21.288,97.231c-13.352,30.5-32.731,58.129-56.521,80.96
	c-23.776,22.848-51.972,40.91-82.492,52.826C 321.197,466.979, 288.401,472.693, 256,472c-32.405-0.641-64.666-7.687-94.167-20.678
	c-29.524-12.948-56.271-31.735-78.367-54.788c-22.112-23.041-39.58-50.354-51.093-79.899C 20.816,287.104, 15.309,255.375, 16,224
	c 0.643-31.38, 7.482-62.574, 20.067-91.103c 12.544-28.55, 30.738-54.414, 53.055-75.774c 22.305-21.377, 48.736-38.252, 77.307-49.36
	C 194.988-3.389, 225.652-8.688, 256-8c 30.354,0.645, 60.481,7.277, 88.038,19.457c 27.575,12.141, 52.558,29.74, 73.183,51.322
	c 20.641,21.57, 36.922,47.118, 47.627,74.715c 6.517,16.729, 10.94,34.2, 13.271,51.899c 0.623-0.036, 1.249-0.060, 1.881-0.060
	c 17.673,0, 32,14.326, 32,32c0,0.898-0.047,1.786-0.119,2.666L 512,223.999 z M 461.153,139.026c-11.736-26.601-28.742-50.7-49.589-70.59
	c-20.835-19.905-45.5-35.593-72.122-45.895C 312.828,12.202, 284.297,7.315, 256,8c-28.302,0.649-56.298,6.868-81.91,18.237
	c-25.625,11.333-48.842,27.745-67.997,47.856c-19.169,20.099-34.264,43.882-44.161,69.529C 51.997,169.264, 47.318,196.729, 48,224
	c 0.651,27.276, 6.664,54.206, 17.627,78.845c 10.929,24.65, 26.749,46.985, 46.123,65.405c 19.365,18.434, 42.265,32.935, 66.937,42.428
	C 203.356,420.208, 229.755,424.681, 256,424c 26.25-0.653, 52.114-6.459, 75.781-17.017c 23.676-10.525, 45.128-25.751, 62.812-44.391
	c 17.698-18.629, 31.605-40.647, 40.695-64.344C 444.412,274.552, 448.679,249.219, 448,224l 0.119,0 c-0.072-0.88-0.119-1.768-0.119-2.666
	c0-16.506, 12.496-30.087, 28.543-31.812C 473.431,172.111, 468.278,155.113, 461.153,139.026z"  />
<glyph unicode="&#xe05c;" d="M 256,480C 114.615,480,0,365.385,0,224s 114.615-256, 256-256s 256,114.615, 256,256S 397.385,480, 256,480z M 256,352
	c 70.692,0, 128-57.308, 128-128s-57.308-128-128-128s-128,57.308-128,128S 185.308,352, 256,352z M 408.735,71.265
	C 367.938,30.468, 313.695,8, 256,8c-57.696,0-111.938,22.468-152.735,63.265C 62.468,112.062, 40,166.304, 40,224
	c0,57.695, 22.468,111.938, 63.265,152.735l 33.941-33.941c0,0,0,0,0,0c-65.503-65.503-65.503-172.085,0-237.588
	C 168.937,73.475, 211.125,56, 256,56c 44.874,0, 87.062,17.475, 118.794,49.206c 65.503,65.503, 65.503,172.084,0,237.588l 33.941,33.941
	C 449.532,335.938, 472,281.695, 472,224C 472,166.304, 449.532,112.062, 408.735,71.265z"  />
<glyph unicode="&#xe05e;" d="M 496.131,44.302L 374.855,147.449c-12.537,11.283-25.945,16.463-36.776,15.963C 366.707,196.946, 384,240.451, 384,288
		C 384,394.039, 298.039,480, 192,480C 85.962,480,0,394.039,0,288c0-106.039, 85.961-192, 192-192c 47.549,0, 91.054,17.293, 124.588,45.922
		c-0.5-10.831, 4.68-24.239, 15.963-36.776l 103.147-121.276c 17.661-19.623, 46.511-21.277, 64.11-3.678S 515.754,26.641, 496.131,44.302
		z M 192,160c-70.692,0-128,57.308-128,128S 121.308,416, 192,416s 128-57.308, 128-128S 262.693,160, 192,160zM 224,384L 160,384L 160,320L 96,320L 96,256L 160,256L 160,192L 224,192L 224,256L 288,256L 288,320L 224,320 	z"  />
<glyph unicode="&#xe05f;" d="M 496.131,44.302L 374.855,147.449c-12.537,11.283-25.945,16.463-36.776,15.963C 366.707,196.946, 384,240.451, 384,288
		C 384,394.039, 298.039,480, 192,480C 85.962,480,0,394.039,0,288c0-106.039, 85.961-192, 192-192c 47.549,0, 91.054,17.293, 124.588,45.922
		c-0.5-10.831, 4.68-24.239, 15.963-36.776l 103.147-121.276c 17.661-19.623, 46.511-21.277, 64.11-3.678S 515.754,26.641, 496.131,44.302
		z M 192,160c-70.692,0-128,57.308-128,128S 121.308,416, 192,416s 128-57.308, 128-128S 262.693,160, 192,160zM 96,320L 288,320L 288,256L 96,256z"  />
<glyph unicode="&#xe060;" d="M 496.131,44.302L 374.855,147.449c-12.537,11.283-25.945,16.463-36.776,15.963C 366.707,196.946, 384,240.451, 384,288
	C 384,394.039, 298.039,480, 192,480C 85.962,480,0,394.039,0,288c0-106.039, 85.961-192, 192-192c 47.549,0, 91.054,17.293, 124.588,45.922
	c-0.5-10.831, 4.68-24.239, 15.963-36.776l 103.147-121.276c 17.661-19.623, 46.511-21.277, 64.11-3.678S 515.754,26.641, 496.131,44.302z
	 M 192,160c-70.692,0-128,57.308-128,128S 121.308,416, 192,416s 128-57.308, 128-128S 262.693,160, 192,160z"  />
<glyph unicode="&#xe061;" d="M 466.895,174.875c-26.863,46.527-10.708,106.152, 36.076,133.244l-50.313,87.146c-14.375-8.427-31.088-13.259-48.923-13.259
	c-53.768,0-97.354,43.873-97.354,97.995L 205.752,480.001 c 0.133-16.705-4.037-33.641-12.979-49.126
	c-26.862-46.528-86.578-62.351-133.431-35.379L 9.030,308.35c 14.485-8.236, 27.025-20.294, 35.943-35.739
	c 26.819-46.454, 10.756-105.96-35.854-133.112l 50.313-87.146c 14.325,8.348, 30.958,13.127, 48.7,13.127
	c 53.598,0, 97.072-43.596, 97.35-97.479l 100.627,0 c-0.043,16.537, 4.136,33.285, 12.983,48.609
	c 26.818,46.453, 86.388,62.297, 133.207,35.506l 50.313,87.145C 488.222,147.494, 475.766,159.51, 466.895,174.875z M 256,120.334
	c-57.254,0-103.668,46.412-103.668,103.667c0,57.254, 46.413,103.667, 103.668,103.667c 57.254,0, 103.666-46.413, 103.666-103.667
	C 359.665,166.746, 313.254,120.334, 256,120.334z"  />
<glyph unicode="&#xe062;" d="M 296,256l-8,0 l0,96 c0,52.935-43.065,96-96,96l-64,0 c-52.935,0-96-43.065-96-96l0-96 l-8,0 c-13.2,0-24-10.8-24-24l0-240 
	c0-13.2, 10.8-24, 24-24l 272,0 c 13.2,0, 24,10.8, 24,24L 320,232 C 320,245.2, 309.2,256, 296,256z M 192,32l-64,0 l 13.92,69.6
	C 133.516,107.366, 128,117.037, 128,128c0,17.673, 14.327,32, 32,32c 17.673,0, 32-14.327, 32-32c0-10.963-5.516-20.634-13.92-26.4L 192,32
	z M 224,256L 96,256 l0,96 c0,17.645, 14.355,32, 32,32l 64,0 c 17.645,0, 32-14.355, 32-32L 224,256 z"  />
<glyph unicode="&#xe063;" d="M 384,448l-64,0 c-52.935,0-96-43.065-96-96l0-96 L 24,256 c-13.2,0-24-10.8-24-24l0-240 c0-13.2, 10.8-24, 24-24l 272,0 c 13.2,0, 24,10.8, 24,24L 320,232 
	c0,13.2-10.8,24-24,24l-8,0 l0,96 c0,17.645, 14.355,32, 32,32l 64,0 c 17.645,0, 32-14.355, 32-32l0-96 l 64,0 l0,96 C 480,404.935, 436.935,448, 384,448z
	 M 192,32l-64,0 l 13.92,69.6C 133.516,107.366, 128,117.037, 128,128c0,17.673, 14.327,32, 32,32c 17.673,0, 32-14.327, 32-32
	c0-10.963-5.516-20.634-13.92-26.4L 192,32z"  />
<glyph unicode="&#xe064;" d="M 224,416l0,8 c0,13.2-10.8,24-24,24l-80,0 c-13.2,0-24-10.8-24-24l0-8 L0,416 l0-64 l 96,0 l0-8 c0-13.2, 10.8-24, 24-24l 80,0 c 13.2,0, 24,10.8, 24,24l0,8 
		l 288,0 L 512,416 L 224,416 z M 128,352L 128,416 l 64,0 l0-64 L 128,352 zM 416,264c0,13.2-10.8,24-24,24l-80,0 c-13.2,0-24-10.8-24-24l0-8 L0,256 l0-64 l 288,0 l0-8 c0-13.2, 10.8-24, 24-24l 80,0 c 13.2,0, 24,10.8, 24,24l0,8 
		l 96,0 l0,64 l-96,0 L 416,264 z M 320,192l0,64 l 64,0 l0-64 L 320,192 zM 224,104c0,13.2-10.8,24-24,24l-80,0 c-13.2,0-24-10.8-24-24l0-8 L0,96 l0-64 l 96,0 l0-8 c0-13.2, 10.8-24, 24-24l 80,0 c 13.2,0, 24,10.8, 24,24l0,8 
		l 288,0 l0,64 L 224,96 L 224,104 z M 128,32l0,64 l 64,0 l0-64 L 128,32 z"  />
<glyph unicode="&#xe065;" d="M 128,384L 64,448L 32,448L 32,416L 96,352 	zM 160,480L 192,480L 192,416L 160,416zM 288,320L 352,320L 352,288L 288,288zM 320,416L 320,448L 288,448L 224,384L 256,352 	zM0,320L 64,320L 64,288L0,288zM 160,192L 192,192L 192,128L 160,128zM 32,192L 32,160L 64,160L 128,224L 96,256 	zM 505,39L 186.941,357.059c-9.334,9.334-24.607,9.334-33.941,0L 122.941,327c-9.334-9.334-9.334-24.607,0-33.941L 441-25
		c 9.334-9.334, 24.607-9.334, 33.941,0L 505,5.059C 514.334,14.393, 514.334,29.666, 505,39z M 240,208l-96,96l 32,32l 96-96L 240,208z"  />
<glyph unicode="&#xe066;" d="M 448,352l-96,0 L 352,416 c0,17.6-14.4,32-32,32L 192,448 c-17.6,0-32-14.4-32-32l0-64 L 64,352 c-35.2,0-64-28.8-64-64l0-256 c0-35.2, 28.8-64, 64-64l 384,0 
	c 35.2,0, 64,28.8, 64,64L 512,288 C 512,323.2, 483.2,352, 448,352z M 192,416l 128,0 l0-64 L 192,352 L 192,416 z M 384,128l-96,0 l0-96 l-64,0 l0,96 l-96,0 l0,64 l 96,0 l0,96 l 64,0 l0-96 l 96,0 
	L 384,128 z"  />
<glyph unicode="&#xe067;" d="M 512,192l0,32 l-96.645,0 c-2.931,36.343-15.893,69.513-35.835,96.125l 80.972,0 l 35.030,140.12l-31.045,7.761l-28.97-115.88l-87.34,0 
	c-0.446,0.347-0.898,0.687-1.349,1.028c 3.355,9.751, 5.181,20.211, 5.181,31.097C 352,437.131, 309.020,480, 256,480s-96-42.869-96-95.75
	c0-10.886, 1.825-21.346, 5.181-31.097c-0.45-0.342-0.902-0.681-1.349-1.028l-87.34,0 l-28.97,115.88l-31.045-7.761l 35.030-140.12l 80.972,0 
	C 112.537,293.513, 99.576,260.343, 96.645,224L0,224 l0-32 l 96.685,0 c 1.901-22.832, 7.754-44.406, 16.819-63.875L 51.508,128.125 l-35.030-140.119
	l 31.045-7.762l 28.97,115.881l 56.177,0 C 162.016,57.109, 206.368,32.25, 256,32.25s 93.983,24.859, 123.331,63.875l 56.177,0 l 28.97-115.881
	l 31.045,7.762l-35.030,140.119l-61.996,0 c 9.065,19.469, 14.918,41.043, 16.818,63.875L 512,192 z"  />
<glyph unicode="&#xe068;" d="M 385.758,320c 9.063,6.44, 17.756,13.608, 25.722,21.574c 16.701,16.701, 27.873,37.25, 31.456,57.861
	c 3.929,22.593-1.836,43.57-15.815,57.55c-11.15,11.149-26.255,17.043-43.682,17.043c-24.816,0-50.961-11.912-71.73-32.681
	c-33.238-33.238-52.613-79.119-63.038-111.861c-7.72,32.901-23.103,77.322-53.009,107.229C 179.615,452.761, 159.105,461, 139.739,461
	c-15.827,0-30.89-5.502-42.13-16.743c-24.993-24.994-21.616-68.893, 7.543-98.052c 10.396-10.396, 22.549-19.031, 35.36-26.206L 32,319.999 l0-128 
	l 32,0 l0-224 l 384,0 L 448,192 l 32,0 L 480,320 L 385.758,320 z M 337.163,415.891c 13.862,13.862, 31.161,22.137, 46.275,22.137c 5.35,0, 12.854-1.127, 18.225-6.499
	c 13.015-13.014, 5.706-43.154-15.64-64.499c-21.973-21.973-51.53-37.084-77.216-47.030l-25.336,0 
	C 292.755,348.774, 309.5,388.228, 337.163,415.891z M 116.967,399.555c-0.351,4.56-0.025,13.124, 6.098,19.247
	C 128.187,423.924, 134.959,425, 139.739,425l0,0 c 10.629,0, 21.734-5.008, 30.466-13.74c 16.936-16.936, 30.883-43.886, 40.334-77.938
	c 0.255-0.92, 0.504-1.835, 0.748-2.743c-0.908,0.243-1.823,0.492-2.743,0.748c-34.052,9.452-61.001,23.399-77.937,40.335
	C 122.693,379.575, 117.722,389.742, 116.967,399.555z M 224,0L 96,0 L 96,208 l 128,0 L 224,0 z M 224,224L 64,224 l0,64 l 160,0 L 224,224 z M 416,0L 288,0 L 288,208 l 128,0 L 416,0 z
	 M 448,224L 288,224 l0,64 l 160,0 L 448,224 z"  />
<glyph unicode="&#xe069;" d="M 416,393.847 C 454.233,393.847 488.546,414.658 512,430.4 L 512,132.555 C 488.546,116.812 454.233,96 416,96 C 377.767,96 343.454,107.335 320,123.078 C 296.546,138.818 262.233,150.153 224,150.153 C 185.767,150.153 151.455,130.695 128,114.955 L 128,412.8 C 151.455,428.542 185.767,448 224,448 C 262.233,448 296.546,436.666 320,420.924 C 343.454,405.182 377.767,393.847 416,393.847 ZM 64,480 C 81.673,480 96,465.673 96,448 L 96-32 L 32-32 L 32,448 C 32,465.673 46.327,480 64,480 Z"  />
<glyph unicode="&#xe06a;" d="M 476.698,442.679l-2.014,2.021c-47.074,47.067-124.097,47.067-171.163,0L 194.468,335.632
		c-47.067-47.066-47.067-124.088,0-171.155l 2.013-2.013c 3.916-3.924, 8.073-7.462, 12.368-10.729l 39.924,39.925
		c-4.651,2.747-9.063,6.036-13.058,10.030l-2.021,2.021c-25.557,25.549-25.557,67.136,0,92.695L 342.758,405.462
		c 25.558,25.559, 67.137,25.559, 92.693,0l 2.021-2.012c 25.55-25.558, 25.55-67.146,0-92.695l-49.343-49.343
		c 8.566-21.154, 12.624-43.7, 12.269-66.193l 76.302,76.302C 523.767,318.589, 523.767,395.61, 476.698,442.679zM 315.521,285.533c-3.916,3.916-8.073,7.461-12.368,10.72l-39.924-39.916c 4.652-2.748, 9.063-6.037, 13.058-10.031l 2.021-2.020
		c 25.558-25.558, 25.558-67.136,0-92.694L 169.243,42.525c-25.559-25.551-67.138-25.551-92.694,0l-2.021,2.021
		c-25.549,25.56-25.549,67.138,0,92.694l 49.344,49.343c-8.567,21.153-12.623,43.701-12.269,66.193l-76.301-76.299
		c-47.068-47.066-47.068-124.089,0-171.162l 2.013-2.016c 47.076-47.064, 124.096-47.064, 171.164,0l 109.055,109.059
		c 47.067,47.066, 47.067,124.097,0,171.163L 315.521,285.533z"  />
<glyph unicode="&#xe06b;" d="M 256,384C 144.341,384, 47.559,318.979,0,224c 47.559-94.979, 144.341-160, 256-160c 111.657,0, 208.439,65.021, 256,160
	C 464.442,318.979, 367.657,384, 256,384z M 382.225,299.148c 30.081-19.187, 55.571-44.887, 74.717-75.148
	c-19.146-30.261-44.637-55.961-74.718-75.149C 344.427,124.743, 300.779,112, 256,112c-44.78,0-88.428,12.743-126.225,36.852
	C 99.695,168.038, 74.205,193.738, 55.058,224c 19.146,30.262, 44.637,55.962, 74.717,75.148c 1.959,1.25, 3.938,2.461, 5.929,3.65
	C 130.725,289.134, 128,274.387, 128,259c0-70.692, 57.308-128, 128-128s 128,57.308, 128,128c0,15.387-2.725,30.134-7.704,43.799
	C 378.286,301.61, 380.265,300.398, 382.225,299.148z M 256,275c0-26.51-21.49-48-48-48s-48,21.49-48,48s 21.49,48, 48,48
	S 256,301.51, 256,275z"  />
<glyph unicode="&#xe06c;" d="M 419.661,331.792 C 458.483,304.277 490.346,267.246 512,224 C 464.439,129.021 367.657,64 256,64 C 224.717,64 194.604,69.106 166.411,78.542 L 205.389,117.52 C 221.918,113.87 238.875,112 256,112 C 300.779,112 344.427,124.743 382.223,148.852 C 412.304,168.040 437.795,193.74 456.941,224.001 C 438.415,253.284 413.934,278.276 385.116,297.248 L 419.661,331.792 ZM 256,131 C 244.638,131 233.624,132.488 223.136,135.267 L 379.729,291.859 C 382.51,281.373 384,270.362 384,259 C 384,188.308 326.692,131 256,131 ZM 480,480l-26.869,0 L 343.325,370.194C 315.787,379.156, 286.448,384, 256,384C 144.341,384, 47.559,318.979,0,224
		c 21.329-42.596, 52.564-79.154, 90.597-106.534L0,26.869L0,0 l 26.869,0 L 480,453.131L 480,480 z M 208,323c 24.022,0, 43.923-17.647, 47.446-40.685
		l-54.762-54.762C 177.647,231.077, 160,250.978, 160,275C 160,301.51, 181.49,323, 208,323z M 55.058,224
		c 19.146,30.262, 44.637,55.962, 74.717,75.148c 1.959,1.25, 3.938,2.461, 5.929,3.65C 130.725,289.134, 128,274.387, 128,259
		c0-29.262, 9.825-56.224, 26.349-77.781l-29.275-29.275C 97.038,170.765, 73.197,195.33, 55.058,224z"  />
<glyph unicode="&#xe06d;" d="M 512,281.475l-176.89,25.704L 256,467.47l-79.108-160.291L0,281.475l 128-124.769L 97.784-19.47L 256,63.709l 158.216-83.179
	l-30.217,176.176L 512,281.475z M 256,103.251l-0.471-0.248L 256,388.387l 55.868-113.198l 124.918-18.152l-90.394-88.111l 21.339-124.415
	L 256,103.251z"  />
<glyph unicode="&#xe06e;" d="M 512,281.475l-176.89,25.704L 256,467.47l-79.108-160.291L0,281.475l 128-124.769L 97.784-19.47L 256,63.709l 158.216-83.179
	l-30.217,176.176L 512,281.475z M 256,103.251l-111.731-58.74l 21.338,124.415l-90.393,88.111l 124.92,18.152L 256,388.387l 55.868-113.198
	l 124.918-18.152l-90.394-88.111l 21.339-124.415L 256,103.251z"  />
<glyph unicode="&#xe06f;" d="M 512,281.475L 335.11,307.179L 256,467.47l-79.108-160.291L0,281.475l 128-124.769L 97.784-19.47L 256,63.709l 158.216-83.179
	l-30.217,176.176L 512,281.475z"  />
<glyph unicode="&#xe070;" d="M 432,416L 192,176L 80,288L0,208L 192,16L 512,336 z"  />
<glyph unicode="&#xe071;" d="M 507.331,68.67c-0.002,0.002-0.004,0.004-0.006,0.005L 352.003,224l 155.322,155.325c 0.002,0.002, 0.004,0.003, 0.006,0.005
		c 1.672,1.673, 2.881,3.627, 3.656,5.708c 2.123,5.688, 0.912,12.341-3.662,16.915L 433.952,475.326c-4.574,4.573-11.225,5.783-16.914,3.66
		c-2.080-0.775-4.035-1.984-5.709-3.655c0-0.002-0.002-0.003-0.004-0.005L 256.001,320L 100.677,475.325
		c-0.002,0.002-0.003,0.003-0.005,0.005c-1.673,1.671-3.627,2.88-5.707,3.655c-5.69,2.124-12.341,0.913-16.915-3.66L 4.676,401.951
		c-4.574-4.574-5.784-11.226-3.661-16.914c 0.776-2.080, 1.985-4.036, 3.656-5.708c 0.002-0.001, 0.003-0.003, 0.005-0.005L 160.001,224
		L 4.676,68.674c-0.001-0.002-0.003-0.003-0.004-0.005c-1.671-1.673-2.88-3.627-3.657-5.707c-2.124-5.688-0.913-12.341, 3.661-16.915
		l 73.374-73.373c 4.575-4.574, 11.226-5.784, 16.915-3.661c 2.080,0.776, 4.035,1.985, 5.708,3.656c 0.001,0.002, 0.003,0.003, 0.005,0.005
		l 155.324,155.325l 155.324-155.325c 0.002-0.001, 0.004-0.003, 0.006-0.004c 1.674-1.672, 3.627-2.881, 5.707-3.657
		c 5.689-2.123, 12.342-0.913, 16.914,3.661l 73.373,73.374c 4.574,4.574, 5.785,11.227, 3.662,16.915
		C 510.212,65.043, 509.003,66.997, 507.331,68.67z"  />
<glyph unicode="&#xe072;" d="M 496,288L 320,288 L 320,464 c0,8.836-7.164,16-16,16l-96,0 c-8.836,0-16-7.164-16-16l0-176 L 16,288 c-8.836,0-16-7.164-16-16l0-96 
	c0-8.836, 7.164-16, 16-16l 176,0 l0-176 c0-8.836, 7.164-16, 16-16l 96,0 c 8.836,0, 16,7.164, 16,16L 320,160 l 176,0 c 8.836,0, 16,7.164, 16,16l0,96 
	C 512,280.836, 504.836,288, 496,288z"  />
<glyph unicode="&#xe073;" d="M0,272l0-96 c0-8.836, 7.164-16, 16-16l 480,0 c 8.836,0, 16,7.164, 16,16l0,96 c0,8.836-7.164,16-16,16L 16,288 C 7.164,288,0,280.836,0,272z"  />
<glyph unicode="&#xe074;" d="M 384,160 L 384,224 L 224,224 L 224,288 L 384,288 L 384,352 L 480,256 ZM 352,192 L 352,64 L 192,64 L 192-32 L 0,64 L 0,480 L 352,480 L 352,320 L 320,320 L 320,448 L 64,448 L 192,384 L 192,96 L 320,96 L 320,192 Z"  />
<glyph unicode="&#xe075;" d="M 192,224 L 32,224 L 32,288 L 192,288 L 192,352 L 288,256 L 192,160 ZM 512,480 L 512,64 L 320-32 L 320,64 L 128,64 L 128,192 L 160,192 L 160,96 L 320,96 L 320,384 L 448,448 L 160,448 L 160,320 L 128,320 L 128,480 Z"  />
</font>
</defs>
</svg>
